<?xml version="1.0" encoding="UTF-8"?>
<svg width="251px" height="45px" viewBox="0 0 251 45" version="1.1" xmlns="http://www.w3.org/2000/svg" xmlns:xlink="http://www.w3.org/1999/xlink">
    <title>C62F423D-E83D-4C02-8071-1DC24A6EFEC8</title>
    <g id="DAppNode-DAO" stroke="none" stroke-width="1" fill="none" fill-rule="evenodd">
        <g id="DAPPNode-DAO-Desktop-HD" transform="translate(-79.000000, -8.000000)">
            <g id="DAppNode-DAO-logo" transform="translate(80.000000, 9.000000)">
                <path d="M56.1531144,32.7923959 C61.5563243,32.7923959 66.2213908,29.7317475 66.2213908,22.3921344 C66.2213908,15.0525213 61.703953,11.9918729 56.1531144,11.9918729 L50.5136986,11.9918729 L50.5136986,32.7923959 L56.1531144,32.7923959 Z M56.1531144,29.7614626 L53.613901,29.7614626 L53.613901,15.0228063 L56.1531144,15.0228063 C61.0543868,15.0228063 63.0621369,18.0240246 63.0621369,22.3921344 C63.0621369,26.7602443 61.0543868,29.7614626 56.1531144,29.7614626 Z M71.1886619,32.7923959 L72.9011547,27.8597005 L81.1683611,27.8597005 L82.9103796,32.7923959 L86.2172621,32.7923959 L78.6881992,11.9918729 L75.4108423,11.9918729 L67.9703565,32.7923959 L71.1886619,32.7923959 Z M80.2235375,25.0664874 L73.8459783,25.0664874 L75.4994195,20.3120821 C76.0308828,18.7669004 76.7690262,16.3896978 77.0052321,15.4982468 C77.241438,16.3896978 78.0681587,18.7966155 78.5700962,20.2823671 L80.2235375,25.0664874 Z M89.5015662,38.5273973 L92.5131914,36.9525005 L92.5131914,31.3363593 C93.3694378,32.2872404 94.8457246,33.1192613 96.4105887,33.1192613 C99.6288941,33.1192613 102.522416,30.5934835 102.522416,25.2447776 C102.522416,19.301771 99.8946257,16.8651383 96.5582174,16.8651383 C94.9343018,16.8651383 93.6351694,17.6377292 92.5131914,18.6777553 L92.5131914,17.1920037 L89.5015662,17.1920037 L89.5015662,38.5273973 Z M96.1153313,30.2963332 C94.579993,30.2963332 93.1627576,29.1671619 92.4836657,28.2459959 L92.4836657,21.6789736 C93.2808606,20.6686625 94.5504673,19.6880664 95.9972284,19.6880664 C98.2411844,19.6880664 99.4812654,21.4115383 99.4812654,25.3339227 C99.4812654,28.6322913 98.3002359,30.2963332 96.1153313,30.2963332 Z M105.983875,38.5273973 L108.9955,36.9525005 L108.9955,31.3363593 C109.851746,32.2872404 111.328033,33.1192613 112.892897,33.1192613 C116.111203,33.1192613 119.004725,30.5934835 119.004725,25.2447776 C119.004725,19.301771 116.376934,16.8651383 113.040526,16.8651383 C111.41661,16.8651383 110.117478,17.6377292 108.9955,18.6777553 L108.9955,17.1920037 L105.983875,17.1920037 L105.983875,38.5273973 Z M112.59764,30.2963332 C111.062302,30.2963332 109.645066,29.1671619 108.965974,28.2459959 L108.965974,21.6789736 C109.763169,20.6686625 111.032776,19.6880664 112.479537,19.6880664 C114.723493,19.6880664 115.963574,21.4115383 115.963574,25.3339227 C115.963574,28.6322913 114.782544,30.2963332 112.59764,30.2963332 Z M125.153025,32.7923959 L125.153025,15.9439723 C125.418757,16.4788429 126.186426,17.8457344 126.629312,18.5588952 L135.664188,32.7923959 L137.819567,32.7923959 L137.819567,11.9918729 L135.605136,11.9918729 L135.605136,29.1077319 C135.339405,28.5728613 134.571736,27.2059698 134.12885,26.492809 L125.182551,11.9918729 L122.938595,11.9918729 L122.938595,32.7923959 L125.153025,32.7923959 Z M148.485305,33.1192613 C152.264599,33.1192613 155.276225,30.177473 155.276225,24.8881972 C155.276225,19.5989213 152.382702,16.8651383 148.603408,16.8651383 C144.824114,16.8651383 141.812488,19.7177815 141.812488,25.0070573 C141.812488,30.2963332 144.706011,33.1192613 148.485305,33.1192613 Z M148.544357,31.1877842 C145.857514,31.1877842 144.056445,29.0483018 144.056445,24.9476273 C144.056445,20.8469527 145.857514,18.7966155 148.544357,18.7966155 C151.231199,18.7966155 153.061794,20.8469527 153.061794,24.9476273 C153.061794,29.0483018 151.231199,31.1877842 148.544357,31.1877842 Z M163.727533,33.1192613 C165.82386,33.1192613 167.300147,32.0792351 168.392599,30.8906338 L168.392599,32.7923959 L170.607029,32.7923959 L170.607029,11.130137 L168.392599,12.3781684 L168.392599,18.9451906 C167.300147,17.6971592 165.971489,16.8651383 164.02279,16.8651383 C160.774959,16.8651383 158.176694,19.7177815 158.176694,25.2447776 C158.176694,30.7420587 160.62733,33.1192613 163.727533,33.1192613 Z M164.288522,31.1877842 C161.837886,31.1877842 160.361599,29.1374469 160.361599,25.2150626 C160.361599,21.0252429 161.631205,18.7966155 164.199945,18.7966155 C166.03054,18.7966155 167.536353,19.8366416 168.392599,21.1441031 L168.392599,28.9294417 C167.300147,30.2963332 165.941963,31.1877842 164.288522,31.1877842 Z M180.623202,33.1192613 C182.955735,33.1192613 184.313919,32.4952456 186.17404,31.3066443 L185.140639,29.7020325 C183.723404,30.6529136 182.660477,31.1877842 180.859408,31.1877842 C178.320194,31.1877842 176.75533,29.0780168 176.54865,25.7499331 L186.882658,25.7499331 C186.941709,25.3933527 186.971235,25.0664874 186.971235,24.5316168 C186.971235,20.0743619 184.786331,16.8651383 180.741305,16.8651383 C177.050587,16.8651383 174.33422,19.9555017 174.33422,24.9179122 C174.33422,31.039209 177.788731,33.1192613 180.623202,33.1192613 Z M184.904434,23.9373161 L176.54865,23.9373161 C176.814382,20.4606573 178.408771,18.7966155 180.711779,18.7966155 C183.428147,18.7966155 184.727279,20.9063828 184.904434,23.9373161 Z M197.10551,32.7923959 C204.427893,32.7923959 208.266239,30.0883279 208.266239,22.2732743 C208.266239,14.4582207 204.132636,11.9918729 197.636973,11.9918729 L190.403168,11.9918729 L190.403168,32.7923959 L197.10551,32.7923959 Z M197.430293,27.8597005 L196.190212,27.8597005 L196.190212,16.9245684 L197.607448,16.9245684 C201.180062,16.9245684 202.390617,18.5291802 202.390617,22.3624194 C202.390617,26.492809 201.002908,27.8597005 197.430293,27.8597005 Z M215.300312,32.7923959 L216.42229,29.1374469 L222.622694,29.1374469 L223.744672,32.7923959 L229.945077,32.7923959 L222.44554,11.9918729 L216.658495,11.9918729 L209.158958,32.7923959 L215.300312,32.7923959 Z M221.234985,24.5613318 L217.809999,24.5613318 L218.193834,23.1944403 C218.839709,20.8803821 219.169106,19.7038526 219.419383,18.51026 L219.488942,18.1677719 C219.500245,18.1102807 219.51142,18.0525015 219.522492,17.9943096 C219.788224,19.3909161 220.113007,20.5200874 220.85115,23.1944403 L221.234985,24.5613318 Z M240.404135,33.1192613 C246.014025,33.1192613 250,29.286022 250,22.3624194 C250,15.4388167 246.073077,11.6650076 240.463187,11.6650076 C234.853297,11.6650076 230.867322,15.4982468 230.867322,22.4218495 C230.867322,29.3454521 234.794245,33.1192613 240.404135,33.1192613 Z M240.463187,28.0974207 C238.160179,28.0974207 236.801995,26.1065135 236.801995,22.3624194 C236.801995,18.6183253 238.101128,16.6868481 240.404135,16.6868481 C242.707143,16.6868481 244.065327,18.6777553 244.065327,22.4218495 C244.065327,26.1659436 242.766194,28.0974207 240.463187,28.0974207 Z" id="DAppNodeDAO-logotype" fill="#231F20" fill-rule="nonzero"></path>
                <g id="logo">
                    <path d="M9.03683401,28.1367817 C8.7464579,28.3532852 8.48922976,28.6108922 8.27462041,28.9018366 C7.81812568,29.516305 7.54896427,30.2779504 7.54990886,31.1013456 C7.55029019,31.3597103 7.57756622,31.6127712 7.62832995,31.8556037 C7.70333904,32.2154958 7.8306272,32.5554992 8.00204949,32.8684159 C8.54700191,33.8632334 9.53689462,34.5782822 10.704271,34.7479998 C10.8808075,34.7739499 11.0607536,34.7872091 11.2442986,34.7868381 C11.4280329,34.7866408 11.607979,34.7731922 11.7843261,34.7466738 C12.3997416,34.6559431 12.9657193,34.4133001 13.4421028,34.0570069 C13.7326684,33.8418293 13.9897071,33.5838435 14.2045058,33.2930886 C14.6617582,32.6788096 14.9309197,31.9169748 14.9299751,31.092443 C14.9288361,30.2682901 14.6579699,29.5070236 14.2001493,28.8938811 C13.9838352,28.6044521 13.7260388,28.3472239 13.4360415,28.1314781 C12.8215731,27.6749833 12.0599277,27.4060113 11.2355854,27.4069559 C10.4110536,27.4079055 9.65016593,27.6789611 9.03683401,28.1367817" id="Fill-1" fill="#2FBCB2"></path>
                    <path d="M9.03683401,28.1367817 C8.7464579,28.3532852 8.48922976,28.6108922 8.27462041,28.9018366 C7.81812568,29.516305 7.54896427,30.2779504 7.54990886,31.1013456 C7.55029019,31.3597103 7.57756622,31.6127712 7.62832995,31.8556037 C7.70333904,32.2154958 7.8306272,32.5554992 8.00204949,32.8684159 C8.54700191,33.8632334 9.53689462,34.5782822 10.704271,34.7479998 C10.8808075,34.7739499 11.0607536,34.7872091 11.2442986,34.7868381 C11.4280329,34.7866408 11.607979,34.7731922 11.7843261,34.7466738 C12.3997416,34.6559431 12.9657193,34.4133001 13.4421028,34.0570069 C13.7326684,33.8418293 13.9897071,33.5838435 14.2045058,33.2930886 C14.6617582,32.6788096 14.9309197,31.9169748 14.9299751,31.092443 C14.9288361,30.2682901 14.6579699,29.5070236 14.2001493,28.8938811 C13.9838352,28.6044521 13.7260388,28.3472239 13.4360415,28.1314781 C12.8215731,27.6749833 12.0599277,27.4060113 11.2355854,27.4069559 C10.4110536,27.4079055 9.65016593,27.6789611 9.03683401,28.1367817 Z" id="Stroke-3" stroke="#36BDB2" stroke-width="0.5"></path>
                    <path d="M12.525325,31.4912414 L14.697558,33.6583601 L17.1726687,36.1274094 L17.3459851,36.300347 L19.4437773,38.3932143 L18.5548438,39.2844208 L11.6362021,32.3824479 C12.0085957,32.1731422 12.316777,31.8630667 12.525325,31.4912414" id="Fill-5" fill="#2FBCB2"></path>
                    <path d="M12.525325,31.4912414 L14.697558,33.6583601 L17.1726687,36.1274094 L17.3459851,36.300347 L19.4437773,38.3932143 L18.5548438,39.2844208 L11.6362021,32.3824479 C12.0085957,32.1731422 12.316777,31.8630667 12.525325,31.4912414 Z" id="Stroke-7" stroke="#36BDB2" stroke-width="0.5"></path>
                    <path d="M3.92526746,22.9107884 L4.40752288,23.3920968 L9.33236226,28.3050029 C8.96015805,28.5143086 8.65178734,28.824384 8.44342875,29.1971565 L3.03500803,23.8018055 L3.92526746,22.9107884 Z" id="Fill-9" fill="#2FBCB2"></path>
                    <path d="M3.92526746,22.9107884 L4.40752288,23.3920968 L9.33236226,28.3050029 C8.96015805,28.5143086 8.65178734,28.824384 8.44342875,29.1971565 L3.03500803,23.8018055 L3.92526746,22.9107884 Z" id="Stroke-11" stroke="#36BDB2" stroke-width="0.5"></path>
                    <path d="M8.42825646,31.4646093 C8.65442023,31.8822736 9.00654625,32.2218981 9.43178719,32.4365075 L7.46355619,33.1631107 L4.9170354,34.1035656 L4.78065523,34.1531928 L1.17529398,35.4844148 L0.739256273,34.3026427 L4.05821918,33.0780625 L4.50183356,32.9136486 L7.02751849,31.9817175 L8.42825646,31.4646093 Z" id="Fill-13" fill="#2FBCB2"></path>
                    <path d="M8.42825646,31.4646093 C8.65442023,31.8822736 9.00654625,32.2218981 9.43178719,32.4365075 L7.46355619,33.1631107 L4.9170354,34.1035656 L4.78065523,34.1531928 L1.17529398,35.4844148 L0.739256273,34.3026427 L4.05821918,33.0780625 L4.50183356,32.9136486 L7.02751849,31.9817175 L8.42825646,31.4646093 Z" id="Stroke-15" stroke="#36BDB2" stroke-width="0.5"></path>
                    <path d="M12.6885645,31.1351565 L12.7201971,31.2222883 L12.6436727,31.2507008 C12.6603414,31.2130069 12.6749265,31.173987 12.6885645,31.1351565" id="Fill-17" fill="#2FBCB2"></path>
                    <path d="M12.6885645,31.1351565 L12.7201971,31.2222883 L12.6436727,31.2507008 C12.6603414,31.2130069 12.6749265,31.173987 12.6885645,31.1351565 Z" id="Stroke-19" stroke="#36BDB2" stroke-width="0.5"></path>
                    <polygon id="Fill-21" fill="#2FBCB2" points="11.8715337 32.7562053 11.8827093 42.0573327 10.6228975 42.058848 10.6119113 32.7577206"></polygon>
                    <polygon id="Stroke-23" stroke="#36BDB2" stroke-width="0.5" points="11.8715337 32.7562053 11.8827093 42.0573327 10.6228975 42.058848 10.6119113 32.7577206"></polygon>
                    <path d="M18.5350686,22.8933052 L19.4262752,23.7822388 L17.3199592,25.8934795 L14.6925574,28.5273215 L12.8252856,30.3991393 C12.8262327,30.380387 12.8262327,30.3603088 12.8262327,30.3413671 C12.8256645,29.8521033 12.675078,29.3990181 12.4193652,29.0235938 L13.8013509,27.6381986 L18.5350686,22.8933052 Z" id="Fill-25" fill="#2FBCB2"></path>
                    <path d="M18.5350686,22.8933052 L19.4262752,23.7822388 L17.3199592,25.8934795 L14.6925574,28.5273215 L12.8252856,30.3991393 C12.8262327,30.380387 12.8262327,30.3603088 12.8262327,30.3413671 C12.8256645,29.8521033 12.675078,29.3990181 12.4193652,29.0235938 L13.8013509,27.6381986 L18.5350686,22.8933052 Z" id="Stroke-27" stroke="#36BDB2" stroke-width="0.5"></path>
                    <path d="M11.2478785,37.9641645 C12.5813735,37.9626508 13.6635122,39.0421377 13.6650296,40.3756327 C13.6667323,41.7091276 12.587056,42.7912664 11.2537505,42.7927837 C9.92025549,42.7944865 8.83811674,41.7148101 8.8364104,40.3815046 C8.83489665,39.048199 9.91438356,37.9658709 11.2478785,37.9641645" id="Fill-29" fill="#2FBCB2"></path>
                    <path d="M11.2478785,37.9641645 C12.5813735,37.9626508 13.6635122,39.0421377 13.6650296,40.3756327 C13.6667323,41.7091276 12.587056,42.7912664 11.2537505,42.7927837 C9.92025549,42.7944865 8.83811674,41.7148101 8.8364104,40.3815046 C8.83489665,39.048199 9.91438356,37.9658709 11.2478785,37.9641645 Z" id="Stroke-31" stroke="#36BDB2" stroke-width="0.5"></path>
                    <path d="M18.6710132,21.0209737 C20.1202418,21.0190819 21.2967102,22.192709 21.2984168,23.6419377 C21.3001197,25.0913558 20.126682,26.2676347 18.6772639,26.2693418 C17.2278458,26.2712336 16.0515669,25.0976065 16.0498602,23.6483778 C16.0481574,22.1989597 17.221595,21.0226808 18.6710132,21.0209737" id="Fill-33" fill="#2FBCB2"></path>
                    <path d="M18.6710132,21.0209737 C20.1202418,21.0190819 21.2967102,22.192709 21.2984168,23.6419377 C21.3001197,25.0913558 20.126682,26.2676347 18.6772639,26.2693418 C17.2278458,26.2712336 16.0515669,25.0976065 16.0498602,23.6483778 C16.0481574,22.1989597 17.221595,21.0226808 18.6710132,21.0209737 Z" id="Stroke-35" stroke="#36BDB2" stroke-width="0.5"></path>
                    <path d="M4.26710813,21.6952039 C5.6006031,21.6936901 6.68274185,22.7731771 6.6842592,24.106672 C6.68596193,25.440167 5.60628561,26.5223057 4.27298006,26.5240121 C2.93948509,26.5255258 1.85715693,25.4458495 1.85564,24.1123545 C1.85412626,22.779049 2.93361317,21.6969102 4.26710813,21.6952039" id="Fill-37" fill="#2FBCB2"></path>
                    <path d="M4.26710813,21.6952039 C5.6006031,21.6936901 6.68274185,22.7731771 6.6842592,24.106672 C6.68596193,25.440167 5.60628561,26.5223057 4.27298006,26.5240121 C2.93948509,26.5255258 1.85715693,25.4458495 1.85564,24.1123545 C1.85412626,22.779049 2.93361317,21.6969102 4.26710813,21.6952039 Z" id="Stroke-39" stroke="#36BDB2" stroke-width="0.5"></path>
                    <path d="M2.50611817,31.8624022 C3.83961313,31.8608884 4.92175188,32.9403753 4.92326923,34.2736809 C4.92497197,35.6071759 3.84529564,36.689504 2.51199009,36.691021 C1.17849512,36.6925347 0.0963563765,35.6130478 0.094839025,34.2795528 C0.0931362892,32.9462473 1.1726232,31.8639191 2.50611817,31.8624022" id="Fill-41" fill="#2FBCB2"></path>
                    <path d="M2.50611817,31.8624022 C3.83961313,31.8608884 4.92175188,32.9403753 4.92326923,34.2736809 C4.92497197,35.6071759 3.84529564,36.689504 2.51199009,36.691021 C1.17849512,36.6925347 0.0963563765,35.6130478 0.094839025,34.2795528 C0.0931362892,32.9462473 1.1726232,31.8639191 2.50611817,31.8624022 Z" id="Stroke-43" stroke="#36BDB2" stroke-width="0.5"></path>
                    <path d="M18.1777715,13.0130167 C18.0860938,12.6625955 17.9432734,12.3277064 17.7542354,12.0195251 C17.3557022,11.3662262 16.7501364,10.8311235 15.9865969,10.5235104 C15.7467951,10.4270972 15.5022578,10.3573918 15.25791,10.3134471 C14.8961238,10.2482877 14.533201,10.2388168 14.178802,10.2804885 C13.0523397,10.4127015 12.0183128,11.0625909 11.4235438,12.081275 C11.3331919,12.2350815 11.2536368,12.3972224 11.1850679,12.5673188 C11.116499,12.7376046 11.0615681,12.9097845 11.0198964,13.083101 C10.8732877,13.6877197 10.8863574,14.3033246 11.0380804,14.8785838 C11.1288111,15.2284368 11.271442,15.5635153 11.4606695,15.8716966 C11.8588238,16.5259425 12.4642002,17.0608559 13.2288762,17.3690372 C13.9935522,17.677029 14.8006577,17.7109347 15.5408989,17.5162141 C15.8901837,17.4241575 16.2252622,17.281716 16.5340117,17.0934356 C17.1873106,16.6950918 17.7224133,16.0897154 18.0304052,15.3250394 C18.3383971,14.5603634 18.3724921,13.753258 18.1777715,13.0130167" id="Fill-45" fill="#2FBCB2"></path>
                    <path d="M18.1777715,13.0130167 C18.0860938,12.6625955 17.9432734,12.3277064 17.7542354,12.0195251 C17.3557022,11.3662262 16.7501364,10.8311235 15.9865969,10.5235104 C15.7467951,10.4270972 15.5022578,10.3573918 15.25791,10.3134471 C14.8961238,10.2482877 14.533201,10.2388168 14.178802,10.2804885 C13.0523397,10.4127015 12.0183128,11.0625909 11.4235438,12.081275 C11.3331919,12.2350815 11.2536368,12.3972224 11.1850679,12.5673188 C11.116499,12.7376046 11.0615681,12.9097845 11.0198964,13.083101 C10.8732877,13.6877197 10.8863574,14.3033246 11.0380804,14.8785838 C11.1288111,15.2284368 11.271442,15.5635153 11.4606695,15.8716966 C11.8588238,16.5259425 12.4642002,17.0608559 13.2288762,17.3690372 C13.9935522,17.677029 14.8006577,17.7109347 15.5408989,17.5162141 C15.8901837,17.4241575 16.2252622,17.281716 16.5340117,17.0934356 C17.1873106,16.6950918 17.7224133,16.0897154 18.0304052,15.3250394 C18.3383971,14.5603634 18.3724921,13.753258 18.1777715,13.0130167 Z" id="Stroke-47" stroke="#36BDB2" stroke-width="0.5"></path>
                    <path d="M24.93861,10.2325282 L24.31164,10.4994166 L17.9110536,13.2239893 C17.8565015,12.8002637 17.6847004,12.3985104 17.4170543,12.0653261 L24.4459366,9.07329676 L24.93861,10.2325282 Z" id="Fill-49" fill="#2FBCB2"></path>
                    <path d="M24.93861,10.2325282 L24.31164,10.4994166 L17.9110536,13.2239893 C17.8565015,12.8002637 17.6847004,12.3985104 17.4170543,12.0653261 L24.4459366,9.07329676 L24.93861,10.2325282 Z" id="Stroke-51" stroke="#36BDB2" stroke-width="0.5"></path>
                    <polygon id="Fill-53" fill="#2FBCB2" points="23.2860233 4.24045718 23.280909 4.38555052 23.1985127 7.09875818 23.1602505 8.34720496 24.4202517 8.34568963 24.457188 7.13739923 24.5395843 4.44654276 24.5536012 3.97356877 24.6619477 0.437723512 23.4030829 0.399082465"></polygon>
                    <polygon id="Stroke-55" stroke="#36BDB2" stroke-width="0.5" points="23.2860233 4.24045718 23.280909 4.38555052 23.1985127 7.09875818 23.1602505 8.34720496 24.4202517 8.34568963 24.457188 7.13739923 24.5395843 4.44654276 24.5536012 3.97356877 24.6619477 0.437723512 23.4030829 0.399082465"></polygon>
                    <polygon id="Fill-57" fill="#2FBCB2" points="13.7685629 12.9805507 12.0520669 3.83910171 13.2902852 3.60668717 15.0065917 12.7479467"></polygon>
                    <polygon id="Stroke-59" stroke="#36BDB2" stroke-width="0.5" points="13.7685629 12.9805507 12.0520669 3.83910171 13.2902852 3.60668717 15.0065917 12.7479467"></polygon>
                    <path d="M19.4794634,23.7841519 L18.3213685,24.2772041 L17.1532345,21.5331214 L15.6960503,18.1101687 L14.6605081,15.6774874 C14.6775556,15.6854429 14.6963079,15.6930196 14.7137342,15.700028 C15.1673877,15.8828153 15.6439606,15.9129326 16.0879538,15.8167088 L16.854524,17.6171165 L19.4794634,23.7841519 Z" id="Fill-61" fill="#2FBCB2"></path>
                    <path d="M19.4794634,23.7841519 L18.3213685,24.2772041 L17.1532345,21.5331214 L15.6960503,18.1101687 L14.6605081,15.6774874 C14.6775556,15.6854429 14.6963079,15.6930196 14.7137342,15.700028 C15.1673877,15.8828153 15.6439606,15.9129326 16.0879538,15.8167088 L16.854524,17.6171165 L19.4794634,23.7841519 Z" id="Stroke-63" stroke="#36BDB2" stroke-width="0.5"></path>
                    <path d="M13.4266275,7.74643139 C12.1162414,7.99248394 10.854346,7.12968996 10.6082934,5.81911444 C10.3622409,4.50853891 11.2250349,3.24683295 12.5356104,3.0007804 C13.8459965,2.75453843 15.1078919,3.61752182 15.3539444,4.92809735 C15.599997,6.23867287 14.737203,7.50037883 13.4266275,7.74643139" id="Fill-65" fill="#2FBCB2"></path>
                    <path d="M13.4266275,7.74643139 C12.1162414,7.99248394 10.854346,7.12968996 10.6082934,5.81911444 C10.3622409,4.50853891 11.2250349,3.24683295 12.5356104,3.0007804 C13.8459965,2.75453843 15.1078919,3.61752182 15.3539444,4.92809735 C15.599997,6.23867287 14.737203,7.50037883 13.4266275,7.74643139 Z" id="Stroke-67" stroke="#36BDB2" stroke-width="0.5"></path>
                    <polygon id="Fill-69" fill="#2FBCB2" points="13.647677 14.8392987 4.60074706 16.9990302 4.30828737 15.7738817 13.3552173 13.6141502"></polygon>
                    <polygon id="Stroke-71" stroke="#36BDB2" stroke-width="0.5" points="13.647677 14.8392987 4.60074706 16.9990302 4.30828737 15.7738817 13.3552173 13.6141502"></polygon>
                    <path d="M8.43649609,15.4358483 C8.74619272,16.7327858 7.94571691,18.0352164 6.6487794,18.3447236 C5.35184189,18.6544202 4.04941129,17.8539444 3.73990408,16.5570069 C3.43020745,15.2600694 4.23049385,13.9578282 5.52762077,13.6481316 C6.82455828,13.338435 8.12679946,14.1389108 8.43649609,15.4358483" id="Fill-73" fill="#2FBCB2"></path>
                    <path d="M8.43649609,15.4358483 C8.74619272,16.7327858 7.94571691,18.0352164 6.6487794,18.3447236 C5.35184189,18.6544202 4.04941129,17.8539444 3.73990408,16.5570069 C3.43020745,15.2600694 4.23049385,13.9578282 5.52762077,13.6481316 C6.82455828,13.338435 8.12679946,14.1389108 8.43649609,15.4358483 Z" id="Stroke-75" stroke="#36BDB2" stroke-width="0.5"></path>
                    <path d="M21.1644214,24.6118469 C20.6228785,25.9561386 19.0939053,26.6069751 17.7496136,26.0654322 C16.4053219,25.5238893 15.7544854,23.9951055 16.2960283,22.6506243 C16.8375712,21.3063326 18.3665444,20.6554961 19.7108362,21.197039 C21.0551279,21.7385819 21.7059644,23.2675552 21.1644214,24.6118469" id="Fill-77" fill="#2FBCB2"></path>
                    <path d="M21.1644214,24.6118469 C20.6228785,25.9561386 19.0939053,26.6069751 17.7496136,26.0654322 C16.4053219,25.5238893 15.7544854,23.9951055 16.2960283,22.6506243 C16.8375712,21.3063326 18.3665444,20.6554961 19.7108362,21.197039 C21.0551279,21.7385819 21.7059644,23.2675552 21.1644214,24.6118469 Z" id="Stroke-79" stroke="#36BDB2" stroke-width="0.5"></path>
                    <path d="M26.2072865,3.41175824 C25.70912,4.64865059 24.3025102,5.24720799 23.0658072,4.74904155 C21.8289149,4.25087511 21.2301681,2.84426521 21.7283345,1.60756228 C22.2266904,0.37066993 23.6333002,-0.228076888 24.8700032,0.270278973 C26.1068955,0.768445418 26.7054529,2.17505531 26.2072865,3.41175824" id="Fill-81" fill="#2FBCB2"></path>
                    <path d="M26.2072865,3.41175824 C25.70912,4.64865059 24.3025102,5.24720799 23.0658072,4.74904155 C21.8289149,4.25087511 21.2301681,2.84426521 21.7283345,1.60756228 C22.2266904,0.37066993 23.6333002,-0.228076888 24.8700032,0.270278973 C26.1068955,0.768445418 26.7054529,2.17505531 26.2072865,3.41175824 Z" id="Stroke-83" stroke="#36BDB2" stroke-width="0.5"></path>
                    <polygon id="Fill-85" fill="#2FBCB2" points="34.6424377 12.1303908 34.5640191 12.2527541 33.1117598 14.5458351 32.4433075 15.6010766 33.5284769 16.2413058 34.1753356 15.2199698 35.6164194 12.9462094 35.869291 12.5459715 37.7628917 9.5579199 36.698937 8.88378516"></polygon>
                    <polygon id="Stroke-87" stroke="#36BDB2" stroke-width="0.5" points="34.6424377 12.1303908 34.5640191 12.2527541 33.1117598 14.5458351 32.4433075 15.6010766 33.5284769 16.2413058 34.1753356 15.2199698 35.6164194 12.9462094 35.869291 12.5459715 37.7628917 9.5579199 36.698937 8.88378516"></polygon>
                    <path d="M26.9455199,30.3205313 C27.2658239,30.4896806 27.6090473,30.6109074 27.9640146,30.6796657 C28.7150526,30.8274109 29.5183697,30.7427415 30.2612627,30.3875849 C30.4944349,30.2763971 30.7111279,30.1428582 30.9085003,29.9926506 C31.2011494,29.7698964 31.4532633,29.5086904 31.6621901,29.2194508 C32.3259069,28.2998318 32.5456305,27.0983604 32.1967246,25.9715193 C32.1442561,25.8010441 32.0787179,25.6328419 31.9995416,25.4671021 C31.9203653,25.3015517 31.8305817,25.1449039 31.7309484,24.9971587 C31.3843155,24.4804294 30.9217595,24.0741302 30.3951805,23.7970133 C30.0758236,23.6274851 29.7326002,23.5062583 29.3776329,23.4375 C28.6264055,23.2888077 27.8227096,23.3736665 27.0790588,23.729202 C26.3354081,24.0845481 25.764695,24.6565872 25.4080229,25.3337526 C25.2398207,25.6534883 25.1184045,25.9967117 25.0485097,26.3513002 C24.9007645,27.1023382 24.9854338,27.9056552 25.3409694,28.6494954 C25.6963155,29.3933356 26.2683545,29.9640487 26.9455199,30.3205313" id="Fill-89" fill="#2FBCB2"></path>
                    <path d="M26.9455199,30.3205313 C27.2658239,30.4896806 27.6090473,30.6109074 27.9640146,30.6796657 C28.7150526,30.8274109 29.5183697,30.7427415 30.2612627,30.3875849 C30.4944349,30.2763971 30.7111279,30.1428582 30.9085003,29.9926506 C31.2011494,29.7698964 31.4532633,29.5086904 31.6621901,29.2194508 C32.3259069,28.2998318 32.5456305,27.0983604 32.1967246,25.9715193 C32.1442561,25.8010441 32.0787179,25.6328419 31.9995416,25.4671021 C31.9203653,25.3015517 31.8305817,25.1449039 31.7309484,24.9971587 C31.3843155,24.4804294 30.9217595,24.0741302 30.3951805,23.7970133 C30.0758236,23.6274851 29.7326002,23.5062583 29.3776329,23.4375 C28.6264055,23.2888077 27.8227096,23.3736665 27.0790588,23.729202 C26.3354081,24.0845481 25.764695,24.6565872 25.4080229,25.3337526 C25.2398207,25.6534883 25.1184045,25.9967117 25.0485097,26.3513002 C24.9007645,27.1023382 24.9854338,27.9056552 25.3409694,28.6494954 C25.6963155,29.3933356 26.2683545,29.9640487 26.9455199,30.3205313 Z" id="Stroke-91" stroke="#36BDB2" stroke-width="0.5"></path>
                    <path d="M28.4733377,25.7284595 L29.4954313,22.8351164 L30.6595875,19.5386941 L30.7412262,19.3077949 L31.7282777,16.5138956 L32.915164,16.9332646 L29.660224,26.1478285 C29.3111286,25.9015866 28.8985786,25.7566826 28.4733377,25.7284595" id="Fill-93" fill="#2FBCB2"></path>
                    <path d="M28.4733377,25.7284595 L29.4954313,22.8351164 L30.6595875,19.5386941 L30.7412262,19.3077949 L31.7282777,16.5138956 L32.915164,16.9332646 L29.660224,26.1478285 C29.3111286,25.9015866 28.8985786,25.7566826 28.4733377,25.7284595 Z" id="Stroke-95" stroke="#36BDB2" stroke-width="0.5"></path>
                    <path d="M31.6187,17.6102596 L29.3026996,15.5973262 L26.6641222,13.3040558 L26.4792513,13.1432408 L24.2428059,11.1994446 L25.0686636,10.2493295 L32.4445577,16.6603338 C32.0873174,16.8946425 31.8011085,17.225175 31.6187,17.6102596" id="Fill-97" fill="#2FBCB2"></path>
                    <path d="M31.6187,17.6102596 L29.3026996,15.5973262 L26.6641222,13.3040558 L26.4792513,13.1432408 L24.2428059,11.1994446 L25.0686636,10.2493295 L32.4445577,16.6603338 C32.0873174,16.8946425 31.8011085,17.225175 31.6187,17.6102596 Z" id="Stroke-99" stroke="#36BDB2" stroke-width="0.5"></path>
                    <path d="M25.9517252,29.0747932 C25.8806939,28.9003402 25.7888267,28.7294861 25.6941182,28.5584427 L20.7654905,31.7669755 L20.1943986,32.1388009 L20.8808454,33.1949895 L26.2193713,29.7191894 C26.1142449,29.4983293 26.0301438,29.2676196 25.9517252,29.0747932" id="Fill-101" fill="#2FBCB2"></path>
                    <path d="M25.9517252,29.0747932 C25.8806939,28.9003402 25.7888267,28.7294861 25.6941182,28.5584427 L20.7654905,31.7669755 L20.1943986,32.1388009 L20.8808454,33.1949895 L26.2193713,29.7191894 C26.1142449,29.4983293 26.0301438,29.2676196 25.9517252,29.0747932 Z" id="Stroke-103" stroke="#36BDB2" stroke-width="0.5"></path>
                    <path d="M30.1473853,29.7114802 C30.5065197,29.400647 30.762422,28.9837405 30.8804287,28.5221315 L32.0138994,30.2878758 L33.480365,32.572433 L33.558026,32.6947963 L35.6340352,35.9290899 L34.5740582,36.609286 L32.6635994,33.6318417 L32.4076971,33.2338768 L30.9539224,30.9680719 L30.1473853,29.7114802 Z" id="Fill-105" fill="#2FBCB2"></path>
                    <path d="M30.1473853,29.7114802 C30.5065197,29.400647 30.762422,28.9837405 30.8804287,28.5221315 L32.0138994,30.2878758 L33.480365,32.572433 L33.558026,32.6947963 L35.6340352,35.9290899 L34.5740582,36.609286 L32.6635994,33.6318417 L32.4076971,33.2338768 L30.9539224,30.9680719 L30.1473853,29.7114802 Z" id="Stroke-107" stroke="#36BDB2" stroke-width="0.5"></path>
                    <path d="M28.9085988,25.6219125 L28.9868279,25.5722853 L29.0309621,25.6410436 C28.9906163,25.6327093 28.9493234,25.6268373 28.9085988,25.6219125" id="Fill-109" fill="#2FBCB2"></path>
                    <path d="M28.9085988,25.6219125 L28.9868279,25.5722853 L29.0309621,25.6410436 C28.9906163,25.6327093 28.9493234,25.6268373 28.9085988,25.6219125 Z" id="Stroke-111" stroke="#36BDB2" stroke-width="0.5"></path>
                    <polygon id="Fill-113" fill="#2FBCB2" points="29.8964647 25.7746015 38.288391 21.7636986 38.8316387 22.9003894 30.4397124 26.9111029"></polygon>
                    <polygon id="Stroke-115" stroke="#36BDB2" stroke-width="0.5" points="29.8964647 25.7746015 38.288391 21.7636986 38.8316387 22.9003894 30.4397124 26.9111029"></polygon>
                    <path d="M18.1263449,24.0013183 L18.5455245,22.8144321 L21.3576077,23.8077343 L24.8654193,25.0468996 L27.3583351,25.9273094 C27.3409087,25.9346966 27.3227247,25.9432204 27.3056772,25.9513653 C26.8643358,26.1623757 26.5201653,26.4932871 26.2909709,26.88538 L24.4460503,26.2337859 L18.1263449,24.0013183 Z" id="Fill-117" fill="#2FBCB2"></path>
                    <path d="M18.1263449,24.0013183 L18.5455245,22.8144321 L21.3576077,23.8077343 L24.8654193,25.0468996 L27.3583351,25.9273094 C27.3409087,25.9346966 27.3227247,25.9432204 27.3056772,25.9513653 C26.8643358,26.1623757 26.5201653,26.4932871 26.2909709,26.88538 L24.4460503,26.2337859 L18.1263449,24.0013183 Z" id="Stroke-119" stroke="#36BDB2" stroke-width="0.5"></path>
                    <path d="M34.8663474,24.0974285 C34.2912777,22.8944418 34.8004304,21.4529791 36.0036065,20.8779094 C37.2065932,20.3030292 38.6480558,20.8121818 39.2229361,22.0151685 C39.7980058,23.2183446 39.2888532,24.6596178 38.0858665,25.2346875 C36.8826903,25.8097572 35.4414171,25.3006046 34.8663474,24.0974285" id="Fill-121" fill="#2FBCB2"></path>
                    <path d="M34.8663474,24.0974285 C34.2912777,22.8944418 34.8004304,21.4529791 36.0036065,20.8779094 C37.2065932,20.3030292 38.6480558,20.8121818 39.2229361,22.0151685 C39.7980058,23.2183446 39.2888532,24.6596178 38.0858665,25.2346875 C36.8826903,25.8097572 35.4414171,25.3006046 34.8663474,24.0974285 Z" id="Stroke-123" stroke="#36BDB2" stroke-width="0.5"></path>
                    <path d="M16.3775723,24.6839768 C15.7526859,23.376432 16.3059727,21.8095754 17.613707,21.1844996 C18.9214412,20.5596133 20.4881084,21.1130895 21.1129948,22.4206343 C21.7380705,23.7283686 21.1845943,25.2952252 19.8770495,25.9201115 C18.5693152,26.5451873 17.002648,25.9917111 16.3775723,24.6839768" id="Fill-125" fill="#2FBCB2"></path>
                    <path d="M16.3775723,24.6839768 C15.7526859,23.376432 16.3059727,21.8095754 17.613707,21.1844996 C18.9214412,20.5596133 20.4881084,21.1130895 21.1129948,22.4206343 C21.7380705,23.7283686 21.1845943,25.2952252 19.8770495,25.9201115 C18.5693152,26.5451873 17.002648,25.9917111 16.3775723,24.6839768 Z" id="Stroke-127" stroke="#36BDB2" stroke-width="0.5"></path>
                    <path d="M19.0765737,31.5517411 C19.3523647,30.2472269 20.6333912,29.4130349 21.9379054,29.6888259 C23.242609,29.9646169 24.0766116,31.2456434 23.8008206,32.5501576 C23.5250295,33.8548612 22.2440031,34.6888638 20.9394889,34.4130728 C19.6347853,34.1374712 18.8007827,32.8562553 19.0765737,31.5517411" id="Fill-129" fill="#2FBCB2"></path>
                    <path d="M19.0765737,31.5517411 C19.3523647,30.2472269 20.6333912,29.4130349 21.9379054,29.6888259 C23.242609,29.9646169 24.0766116,31.2456434 23.8008206,32.5501576 C23.5250295,33.8548612 22.2440031,34.6888638 20.9394889,34.4130728 C19.6347853,34.1374712 18.8007827,32.8562553 19.0765737,31.5517411 Z" id="Stroke-131" stroke="#36BDB2" stroke-width="0.5"></path>
                    <path d="M31.8106172,35.4091594 C31.5219458,34.1072971 32.3434469,32.8181257 33.6451199,32.5294543 C34.9469822,32.2409724 36.2361536,33.0622841 36.524825,34.3641464 C36.8134963,35.6658193 35.9919952,36.9551802 34.6901329,37.2438515 C33.38846,37.5323335 32.0990991,36.7110218 31.8106172,35.4091594" id="Fill-133" fill="#2FBCB2"></path>
                    <path d="M31.8106172,35.4091594 C31.5219458,34.1072971 32.3434469,32.8181257 33.6451199,32.5294543 C34.9469822,32.2409724 36.2361536,33.0622841 36.524825,34.3641464 C36.8134963,35.6658193 35.9919952,36.9551802 34.6901329,37.2438515 C33.38846,37.5323335 32.0990991,36.7110218 31.8106172,35.4091594 Z" id="Stroke-135" stroke="#36BDB2" stroke-width="0.5"></path>
                    <path d="M16.9714511,26.7405708 C17.2917551,26.9097201 17.6349785,27.0309469 17.9899458,27.0997053 C18.7409838,27.2474504 19.5443008,27.1627811 20.2871939,26.8076244 C20.5203661,26.6962473 20.737059,26.5628978 20.9344314,26.4126902 C21.2270806,26.1899359 21.4791944,25.92873 21.6881213,25.6394904 C22.3518381,24.7196819 22.5715617,23.5184 22.2226558,22.3915588 C22.1701873,22.2210836 22.104649,22.0528814 22.0254728,21.8871416 C21.9462965,21.7215913 21.8565129,21.5649435 21.7568796,21.4170089 C21.4102467,20.900469 20.9476906,20.4939803 20.4211116,20.2170528 C20.1017548,20.0475247 19.7585313,19.9262979 19.4035641,19.8575396 C18.6523366,19.7088473 17.8486407,19.7935166 17.10499,20.1490522 C16.3613393,20.5045877 15.7906261,21.0764373 15.4339541,21.7536027 C15.2657519,22.0735279 15.1443357,22.4167513 15.0744408,22.7713397 C14.9266957,23.5223777 15.011365,24.3256948 15.3669005,25.0695349 C15.7222466,25.8133751 16.2942857,26.3838988 16.9714511,26.7405708" id="Fill-137" fill="#2FBCB2"></path>
                    <path d="M16.9714511,26.7405708 C17.2917551,26.9097201 17.6349785,27.0309469 17.9899458,27.0997053 C18.7409838,27.2474504 19.5443008,27.1627811 20.2871939,26.8076244 C20.5203661,26.6962473 20.737059,26.5628978 20.9344314,26.4126902 C21.2270806,26.1899359 21.4791944,25.92873 21.6881213,25.6394904 C22.3518381,24.7196819 22.5715617,23.5184 22.2226558,22.3915588 C22.1701873,22.2210836 22.104649,22.0528814 22.0254728,21.8871416 C21.9462965,21.7215913 21.8565129,21.5649435 21.7568796,21.4170089 C21.4102467,20.900469 20.9476906,20.4939803 20.4211116,20.2170528 C20.1017548,20.0475247 19.7585313,19.9262979 19.4035641,19.8575396 C18.6523366,19.7088473 17.8486407,19.7935166 17.10499,20.1490522 C16.3613393,20.5045877 15.7906261,21.0764373 15.4339541,21.7536027 C15.2657519,22.0735279 15.1443357,22.4167513 15.0744408,22.7713397 C14.9266957,23.5223777 15.011365,24.3256948 15.3669005,25.0695349 C15.7222466,25.8133751 16.2942857,26.3838988 16.9714511,26.7405708 Z" id="Stroke-139" stroke="#36BDB2" stroke-width="0.5"></path>
                    <path d="M19.13105,36.3013114 C20.4645449,36.2997977 21.5466837,37.3792846 21.548201,38.7127796 C21.5499038,40.0460851 20.4702275,41.1284133 19.1369219,41.1299302 C17.8034269,41.131444 16.7212882,40.0519571 16.7195818,38.7184621 C16.7180681,37.3851565 17.797555,36.3028284 19.13105,36.3013114" id="Fill-141" fill="#2FBCB2"></path>
                    <path d="M19.13105,36.3013114 C20.4645449,36.2997977 21.5466837,37.3792846 21.548201,38.7127796 C21.5499038,40.0460851 20.4702275,41.1284133 19.1369219,41.1299302 C17.8034269,41.131444 16.7212882,40.0519571 16.7195818,38.7184621 C16.7180681,37.3851565 17.797555,36.3028284 19.13105,36.3013114 Z" id="Stroke-143" stroke="#36BDB2" stroke-width="0.5"></path>
                    <path d="M26.1205146,10.7002364 C25.6223482,11.9369393 24.2157383,12.5356861 22.9790353,12.0375197 C21.742143,11.5393533 21.1433962,10.1327434 21.6415626,8.89604043 C22.1399185,7.65914808 23.546339,7.06040126 24.7832313,7.55875712 C26.0201237,8.05692357 26.6186811,9.46334404 26.1205146,10.7002364" id="Fill-145" fill="#2FBCB2"></path>
                    <path d="M26.1205146,10.7002364 C25.6223482,11.9369393 24.2157383,12.5356861 22.9790353,12.0375197 C21.742143,11.5393533 21.1433962,10.1327434 21.6415626,8.89604043 C22.1399185,7.65914808 23.546339,7.06040126 24.7832313,7.55875712 C26.0201237,8.05692357 26.6186811,9.46334404 26.1205146,10.7002364 Z" id="Stroke-147" stroke="#36BDB2" stroke-width="0.5"></path>
                    <path d="M34.5570675,17.7752606 C34.0589011,19.0119636 32.6522912,19.6107104 31.4155883,19.1125439 C30.1786959,18.6143775 29.5799491,17.2077676 30.0781155,15.9710647 C30.5764714,14.7341723 31.9830813,14.1354255 33.2197842,14.6337814 C34.4566766,15.1317584 35.055234,16.5383683 34.5570675,17.7752606" id="Fill-149" fill="#2FBCB2"></path>
                    <path d="M34.5570675,17.7752606 C34.0589011,19.0119636 32.6522912,19.6107104 31.4155883,19.1125439 C30.1786959,18.6143775 29.5799491,17.2077676 30.0781155,15.9710647 C30.5764714,14.7341723 31.9830813,14.1354255 33.2197842,14.6337814 C34.4566766,15.1317584 35.055234,16.5383683 34.5570675,17.7752606 Z" id="Stroke-151" stroke="#36BDB2" stroke-width="0.5"></path>
                    <path d="M39.9248394,9.59315144 C39.4266729,10.8298544 38.020063,11.4286012 36.7833601,10.9304347 C35.5464678,10.4322683 34.9477209,9.02565841 35.4458874,7.78895548 C35.9442432,6.55206313 37.3506637,5.95331631 38.5875561,6.45167217 C39.8244484,6.9496492 40.4230058,8.35625909 39.9248394,9.59315144" id="Fill-153" fill="#2FBCB2"></path>
                    <path d="M39.9248394,9.59315144 C39.4266729,10.8298544 38.020063,11.4286012 36.7833601,10.9304347 C35.5464678,10.4322683 34.9477209,9.02565841 35.4458874,7.78895548 C35.9442432,6.55206313 37.3506637,5.95331631 38.5875561,6.45167217 C39.8244484,6.9496492 40.4230058,8.35625909 39.9248394,9.59315144 Z" id="Stroke-155" stroke="#36BDB2" stroke-width="0.5"></path>
                </g>
            </g>
        </g>
    </g>
</svg>