<svg width="16" height="17" viewBox="0 0 16 17" fill="none" xmlns="http://www.w3.org/2000/svg">
<path d="M7.99998 4.33335C8.27612 4.33335 8.49998 4.1095 8.49998 3.83335C8.49998 3.55721 8.27612 3.33335 7.99998 3.33335V4.33335ZM1.58646 5.4798C1.3912 5.67506 1.3912 5.99164 1.58646 6.18691C1.78172 6.38217 2.0983 6.38217 2.29357 6.18691L1.58646 5.4798ZM6.07069 3.66166C6.34406 3.62261 6.53401 3.36934 6.49495 3.09598C6.4559 2.82261 6.20264 2.63266 5.92927 2.67171L6.07069 3.66166ZM4.99994 13.8334V14.3334C5.13255 14.3334 5.25972 14.2807 5.35349 14.1869L4.99994 13.8334ZM5.66661 13.1667L6.02016 13.5202C6.14543 13.395 6.19506 13.2128 6.15062 13.0413C6.10618 12.8698 5.97431 12.7346 5.80397 12.6859L5.66661 13.1667ZM2.66665 11.1667L2.98673 10.7826C2.8049 10.6311 2.54174 10.6278 2.3562 10.7747C2.17066 10.9217 2.11358 11.1786 2.21944 11.3903L2.66665 11.1667ZM7.99998 13.3334C8.27612 13.3334 8.49998 13.1095 8.49998 12.8334C8.49998 12.5572 8.27612 12.3334 7.99998 12.3334V13.3334ZM7.99998 3.33335C7.31488 3.33335 6.01057 3.58369 4.7687 3.95423C4.13966 4.14192 3.5074 4.36606 2.95815 4.61565C2.41981 4.86029 1.91781 5.14845 1.58646 5.4798L2.29357 6.18691C2.49555 5.98492 2.86494 5.75642 3.37187 5.52606C3.86789 5.30065 4.45479 5.09146 5.05462 4.91248C6.27052 4.54969 7.46285 4.33335 7.99998 4.33335V3.33335ZM5.92927 2.67171C5.51232 2.73128 4.84775 2.87151 4.17859 3.10236C3.52289 3.32856 2.79544 3.66412 2.31309 4.14647L3.0202 4.85357C3.33785 4.53592 3.88818 4.26037 4.50471 4.04768C5.10776 3.83964 5.70986 3.71321 6.07069 3.66166L5.92927 2.67171ZM2.31309 4.14647C2.1343 4.32526 1.97614 4.57635 1.83668 4.84353C1.69327 5.11827 1.55271 5.44343 1.41827 5.79568C1.1492 6.50064 0.893816 7.34264 0.682314 8.1675C0.470798 8.99241 0.300079 9.81225 0.203166 10.4745C0.154868 10.8045 0.123386 11.1055 0.116082 11.3531C0.112438 11.4767 0.114486 11.5964 0.12597 11.7048C0.136459 11.8038 0.158649 11.9354 0.219433 12.057L1.11386 11.6097C1.13298 11.648 1.12652 11.6572 1.12041 11.5995C1.11529 11.5511 1.11278 11.4798 1.11565 11.3826C1.12136 11.1888 1.14717 10.9299 1.19263 10.6193C1.28321 10.0003 1.44583 9.21596 1.65098 8.41587C1.85614 7.61573 2.10076 6.8119 2.35253 6.15227C2.47849 5.82224 2.60356 5.53541 2.72318 5.30625C2.84674 5.06953 2.94899 4.92478 3.0202 4.85357L2.31309 4.14647ZM0.219433 12.057C0.358485 12.3351 0.64992 12.6021 0.949971 12.8271C1.26968 13.0669 1.67114 13.3113 2.10968 13.5306C2.97449 13.963 4.05547 14.3334 4.99994 14.3334V13.3334C4.27774 13.3334 3.35875 13.0371 2.5569 12.6361C2.16212 12.4387 1.81359 12.2248 1.54998 12.0271C1.2667 11.8146 1.14147 11.665 1.11386 11.6097L0.219433 12.057ZM5.35349 14.1869L6.02016 13.5202L5.31305 12.8131L4.64639 13.4798L5.35349 14.1869ZM5.80397 12.6859C5.44935 12.5846 4.87143 12.3663 4.32526 12.0505C3.76571 11.727 3.31417 11.3437 3.11385 10.9431L2.21944 11.3903C2.55249 12.0564 3.21205 12.562 3.8247 12.9162C4.45073 13.2782 5.10611 13.5265 5.52924 13.6474L5.80397 12.6859ZM2.34656 11.5508C3.09491 12.1744 5.20615 13.3334 7.99998 13.3334V12.3334C5.46054 12.3334 3.57174 11.2701 2.98673 10.7826L2.34656 11.5508Z" fill="#455453"/>
<path d="M8.00002 4.33335C7.72388 4.33335 7.50002 4.1095 7.50002 3.83335C7.50002 3.55721 7.72388 3.33335 8.00002 3.33335V4.33335ZM14.4135 5.4798C14.6088 5.67506 14.6088 5.99164 14.4135 6.18691C14.2183 6.38217 13.9017 6.38217 13.7064 6.18691L14.4135 5.4798ZM9.92931 3.66166C9.65594 3.62261 9.46599 3.36934 9.50505 3.09598C9.5441 2.82261 9.79736 2.63266 10.0707 2.67171L9.92931 3.66166ZM11.0001 13.8334V14.3334C10.8675 14.3334 10.7403 14.2807 10.6465 14.1869L11.0001 13.8334ZM10.3334 13.1667L9.97984 13.5202C9.85457 13.395 9.80494 13.2128 9.84938 13.0413C9.89382 12.8698 10.0257 12.7346 10.196 12.6859L10.3334 13.1667ZM13.3334 11.1667L13.0133 10.7826C13.1951 10.6311 13.4583 10.6278 13.6438 10.7747C13.8293 10.9217 13.8864 11.1786 13.7806 11.3903L13.3334 11.1667ZM8.00002 13.3334C7.72388 13.3334 7.50002 13.1095 7.50002 12.8334C7.50002 12.5572 7.72388 12.3334 8.00002 12.3334V13.3334ZM8.00002 3.33335C8.68512 3.33335 9.98943 3.58369 11.2313 3.95423C11.8603 4.14192 12.4926 4.36606 13.0418 4.61565C13.5802 4.86029 14.0822 5.14845 14.4135 5.4798L13.7064 6.18691C13.5045 5.98492 13.1351 5.75642 12.6281 5.52606C12.1321 5.30065 11.5452 5.09146 10.9454 4.91248C9.72948 4.54969 8.53715 4.33335 8.00002 4.33335V3.33335ZM10.0707 2.67171C10.4877 2.73128 11.1522 2.87151 11.8214 3.10236C12.4771 3.32856 13.2046 3.66412 13.6869 4.14647L12.9798 4.85357C12.6621 4.53592 12.1118 4.26037 11.4953 4.04768C10.8922 3.83964 10.2901 3.71321 9.92931 3.66166L10.0707 2.67171ZM13.6869 4.14647C13.8657 4.32526 14.0239 4.57635 14.1633 4.84353C14.3067 5.11827 14.4473 5.44343 14.5817 5.79568C14.8508 6.50064 15.1062 7.34264 15.3177 8.1675C15.5292 8.99241 15.6999 9.81225 15.7968 10.4745C15.8451 10.8045 15.8766 11.1055 15.8839 11.3531C15.8876 11.4767 15.8855 11.5964 15.874 11.7048C15.8635 11.8038 15.8414 11.9354 15.7806 12.057L14.8861 11.6097C14.867 11.648 14.8735 11.6572 14.8796 11.5995C14.8847 11.5511 14.8872 11.4798 14.8844 11.3826C14.8786 11.1888 14.8528 10.9299 14.8074 10.6193C14.7168 10.0003 14.5542 9.21596 14.349 8.41587C14.1439 7.61573 13.8992 6.8119 13.6475 6.15227C13.5215 5.82224 13.3964 5.53541 13.2768 5.30625C13.1533 5.06953 13.051 4.92478 12.9798 4.85357L13.6869 4.14647ZM15.7806 12.057C15.6415 12.3351 15.3501 12.6021 15.05 12.8271C14.7303 13.0669 14.3289 13.3113 13.8903 13.5306C13.0255 13.963 11.9445 14.3334 11.0001 14.3334V13.3334C11.7223 13.3334 12.6413 13.0371 13.4431 12.6361C13.8379 12.4387 14.1864 12.2248 14.45 12.0271C14.7333 11.8146 14.8585 11.665 14.8861 11.6097L15.7806 12.057ZM10.6465 14.1869L9.97984 13.5202L10.6869 12.8131L11.3536 13.4798L10.6465 14.1869ZM10.196 12.6859C10.5507 12.5846 11.1286 12.3663 11.6747 12.0505C12.2343 11.727 12.6858 11.3437 12.8861 10.9431L13.7806 11.3903C13.4475 12.0564 12.7879 12.562 12.1753 12.9162C11.5493 13.2782 10.8939 13.5265 10.4708 13.6474L10.196 12.6859ZM13.6534 11.5508C12.9051 12.1744 10.7938 13.3334 8.00002 13.3334V12.3334C10.5395 12.3334 12.4283 11.2701 13.0133 10.7826L13.6534 11.5508Z" fill="#455453"/>
<ellipse cx="5.83335" cy="9.16665" rx="1.16667" ry="1.33333" fill="#455453"/>
<ellipse cx="10.1667" cy="9.16665" rx="1.16667" ry="1.33333" fill="#455453"/>
</svg>
