<svg width="283" height="110" viewBox="0 0 283 110" fill="none" xmlns="http://www.w3.org/2000/svg">
<path d="M0.939344 88.5909H51.2064V107H72.3768V88.5909H85.3655V70.8466H72.3768V2.27272H44.6609L0.939344 71.1534V88.5909ZM51.6155 70.8466H23.2348V70.0284L50.7973 26.4091H51.6155V70.8466ZM141.581 109.301C167.916 109.301 183.819 89.2557 183.871 54.7386C183.922 20.4773 167.814 0.840905 141.581 0.840905C115.297 0.840905 99.3422 20.4261 99.291 54.7386C99.1888 89.1534 115.194 109.25 141.581 109.301ZM141.581 90.9432C129.564 90.9432 121.791 78.875 121.842 54.7386C121.893 30.9602 129.615 18.9943 141.581 18.9943C153.496 18.9943 161.268 30.9602 161.268 54.7386C161.319 78.875 153.547 90.9432 141.581 90.9432ZM198.274 88.5909H248.541V107H269.711V88.5909H282.7V70.8466H269.711V2.27272H241.995L198.274 71.1534V88.5909ZM248.95 70.8466H220.569V70.0284L248.132 26.4091H248.95V70.8466Z" fill="#F4F6F6"/>
</svg>
