<svg width="15" height="16" viewBox="0 0 15 16" fill="none" xmlns="http://www.w3.org/2000/svg">
<path d="M6.00001 13.1667C2.66668 14.1667 2.66668 11.5 1.33334 11.1667M10.6667 15.1667V12.5867C10.6917 12.2688 10.6487 11.9492 10.5407 11.6492C10.4326 11.3492 10.262 11.0756 10.04 10.8467C12.1333 10.6133 14.3333 9.82 14.3333 6.18C14.3332 5.24922 13.9751 4.35413 13.3333 3.68C13.6372 2.86567 13.6158 1.96557 13.2733 1.16667C13.2733 1.16667 12.4867 0.933332 10.6667 2.15333C9.13868 1.73921 7.528 1.73921 6.00001 2.15333C4.18001 0.933332 3.39334 1.16667 3.39334 1.16667C3.05093 1.96557 3.02944 2.86567 3.33334 3.68C2.68676 4.35913 2.32836 5.26231 2.33334 6.2C2.33334 9.81333 4.53334 10.6067 6.62668 10.8667C6.40734 11.0933 6.23819 11.3636 6.13022 11.6599C6.02225 11.9563 5.97788 12.272 6.00001 12.5867V15.1667" stroke="#455453" stroke-linecap="round" stroke-linejoin="round"/>
</svg>
