<svg width="16" height="14" viewBox="0 0 16 14" fill="none" xmlns="http://www.w3.org/2000/svg">
<path d="M15.3334 1.49999C14.6949 1.95031 13.9881 2.29473 13.24 2.51999C12.8385 2.05833 12.3049 1.73112 11.7114 1.58261C11.1178 1.4341 10.493 1.47145 9.92141 1.68963C9.3498 1.9078 8.85898 2.29626 8.51534 2.80247C8.1717 3.30868 7.99182 3.90821 8.00002 4.51999V5.18666C6.82844 5.21704 5.66754 4.9572 4.62069 4.43029C3.57385 3.90338 2.67356 3.12575 2.00002 2.16666C2.00002 2.16666 -0.666646 8.16666 5.33335 10.8333C3.96037 11.7653 2.32479 12.2326 0.666687 12.1667C6.66669 15.5 14 12.1667 14 4.49999C13.9994 4.31429 13.9816 4.12905 13.9467 3.94666C14.6271 3.27565 15.1072 2.42847 15.3334 1.49999V1.49999Z" stroke="#455453" stroke-linecap="round" stroke-linejoin="round"/>
</svg>
