<svg width="16" height="16" viewBox="0 0 16 16" fill="none" xmlns="http://www.w3.org/2000/svg">
<path d="M12.28 5.48C11.8726 4.544 11.1696 3.76738 10.2787 3.26915C9.38776 2.77092 8.35803 2.57855 7.3473 2.72154C6.33657 2.86452 5.4006 3.33497 4.68282 4.06078C3.96504 4.7866 3.50505 5.72774 3.37332 6.74C2.73771 6.89221 2.18014 7.27255 1.80648 7.80879C1.43282 8.34503 1.26911 8.99982 1.34643 9.64881C1.42375 10.2978 1.73672 10.8958 2.2259 11.3292C2.71508 11.7627 3.34641 12.0014 3.99999 12H5.33332C5.51013 12 5.6797 11.9298 5.80473 11.8047C5.92975 11.6797 5.99999 11.5101 5.99999 11.3333C5.99999 11.1565 5.92975 10.987 5.80473 10.8619C5.6797 10.7369 5.51013 10.6667 5.33332 10.6667H3.99999C3.64637 10.6667 3.30723 10.5262 3.05718 10.2761C2.80713 10.0261 2.66665 9.68695 2.66665 9.33333C2.66665 8.97971 2.80713 8.64057 3.05718 8.39052C3.30723 8.14048 3.64637 8 3.99999 8C4.1768 8 4.34637 7.92976 4.47139 7.80474C4.59642 7.67971 4.66665 7.51014 4.66665 7.33333C4.66836 6.54485 4.94951 5.7825 5.46017 5.18172C5.97082 4.58094 6.67792 4.18063 7.45582 4.05191C8.23373 3.9232 9.03208 4.0744 9.70903 4.47867C10.386 4.88294 10.8977 5.51409 11.1533 6.26C11.1914 6.37456 11.2599 6.47662 11.3515 6.55529C11.4431 6.63396 11.5543 6.68628 11.6733 6.70667C12.1361 6.78649 12.556 7.02662 12.8595 7.38498C13.163 7.74333 13.3308 8.19706 13.3333 8.66667C13.3333 9.1971 13.1226 9.70581 12.7475 10.0809C12.3725 10.456 11.8638 10.6667 11.3333 10.6667C11.1565 10.6667 10.9869 10.7369 10.8619 10.8619C10.7369 10.987 10.6667 11.1565 10.6667 11.3333C10.6667 11.5101 10.7369 11.6797 10.8619 11.8047C10.9869 11.9298 11.1565 12 11.3333 12C12.1291 11.9927 12.8959 11.7009 13.4953 11.1774C14.0947 10.6539 14.487 9.93329 14.6013 9.14577C14.7156 8.35825 14.5445 7.5558 14.1187 6.88348C13.693 6.21117 13.0408 5.71334 12.28 5.48ZM8.61332 12.4133C8.60001 12.3724 8.57971 12.334 8.55332 12.3L8.47332 12.1933C8.40852 12.1344 8.33411 12.0871 8.25332 12.0533C8.13191 12.0023 7.99811 11.9883 7.86878 12.0132C7.73945 12.0382 7.6204 12.1008 7.52665 12.1933L7.44665 12.3C7.42027 12.334 7.39997 12.3724 7.38665 12.4133C7.36743 12.4511 7.35395 12.4916 7.34665 12.5333C7.34369 12.5777 7.34369 12.6223 7.34665 12.6667C7.34339 12.7088 7.34339 12.7512 7.34665 12.7933C7.35284 12.8375 7.36635 12.8803 7.38665 12.92C7.39997 12.961 7.42027 12.9993 7.44665 13.0333L7.52665 13.14C7.65441 13.2618 7.82348 13.3309 7.99999 13.3333C8.08711 13.3323 8.17317 13.3142 8.25332 13.28C8.33411 13.2462 8.40852 13.1989 8.47332 13.14L8.55332 13.0333C8.57971 12.9993 8.60001 12.961 8.61332 12.92C8.63362 12.8803 8.64714 12.8375 8.65332 12.7933C8.66104 12.7515 8.6655 12.7092 8.66665 12.6667C8.66962 12.6223 8.66962 12.5777 8.66665 12.5333C8.65518 12.4908 8.63719 12.4503 8.61332 12.4133ZM7.99999 7.33333C7.6487 7.33311 7.30354 7.42541 6.99926 7.60096C6.69498 7.77651 6.4423 8.02911 6.26665 8.33333C6.22258 8.40942 6.19398 8.49348 6.18253 8.58067C6.17107 8.66785 6.17698 8.75644 6.19991 8.84134C6.22283 8.92623 6.26233 9.00575 6.31612 9.07531C6.36991 9.14488 6.43693 9.20311 6.51332 9.24667C6.6664 9.33358 6.84764 9.35642 7.0175 9.31021C7.18736 9.264 7.33204 9.15249 7.41999 9C7.47872 8.89826 7.5633 8.81385 7.66515 8.75532C7.767 8.69678 7.88251 8.6662 7.99999 8.66667C8.1768 8.66667 8.34637 8.7369 8.47139 8.86193C8.59642 8.98695 8.66665 9.15652 8.66665 9.33333C8.66665 9.51014 8.59642 9.67971 8.47139 9.80474C8.34637 9.92976 8.1768 10 7.99999 10C7.82318 10 7.65361 10.0702 7.52858 10.1953C7.40356 10.3203 7.33332 10.4899 7.33332 10.6667C7.33332 10.8435 7.40356 11.013 7.52858 11.1381C7.65361 11.2631 7.82318 11.3333 7.99999 11.3333C8.53042 11.3333 9.03913 11.1226 9.4142 10.7475C9.78928 10.3725 9.99999 9.86377 9.99999 9.33333C9.99999 8.8029 9.78928 8.29419 9.4142 7.91912C9.03913 7.54405 8.53042 7.33333 7.99999 7.33333Z" fill="#A0A7B1"/>
</svg>
