<svg width="103" height="72" viewBox="0 0 103 72" fill="none" xmlns="http://www.w3.org/2000/svg">
<g filter="url(#filter0_dd)">
<circle cx="67.0001" cy="34" r="20" fill="white"/>
<g clip-path="url(#clip0)">
<path d="M66.9972 19L66.8007 19.7062V40.1995L66.9972 40.4069L75.9946 34.784L66.9972 19Z" fill="#343434"/>
<path d="M66.9974 19L58.0001 34.784L66.9974 40.407V30.4602V19Z" fill="#8C8C8C"/>
<path d="M66.9972 42.2082L66.8865 42.3509V49.651L66.9972 49.9931L75.9999 36.588L66.9972 42.2082Z" fill="#3C3C3B"/>
<path d="M66.9974 49.993V42.208L58.0001 36.5879L66.9974 49.993Z" fill="#8C8C8C"/>
<path d="M66.9974 40.4069L75.9946 34.784L66.9974 30.4602V40.4069Z" fill="#141414"/>
<path d="M58.0001 34.7841L66.9973 40.407V30.4603L58.0001 34.7841Z" fill="#393939"/>
</g>
</g>
<g filter="url(#filter1_dd)">
<circle cx="36" cy="34" r="20" fill="white"/>
<path fill-rule="evenodd" clip-rule="evenodd" d="M30.1145 37.4084C29.9503 37.5309 29.8048 37.6766 29.6834 37.8411C29.4252 38.1887 29.2729 38.6195 29.2735 39.0852C29.2737 39.2314 29.2891 39.3745 29.3178 39.5119C29.3603 39.7154 29.4322 39.9077 29.5292 40.0847C29.8374 40.6474 30.3974 41.0519 31.0576 41.1479C31.1575 41.1625 31.2593 41.17 31.3631 41.1698C31.467 41.1697 31.5688 41.1621 31.6685 41.1471C32.0166 41.0958 32.3368 40.9585 32.6062 40.757C32.7706 40.6353 32.916 40.4894 33.0375 40.3249C33.2961 39.9775 33.4483 39.5466 33.4478 39.0802C33.4471 38.614 33.2939 38.1834 33.035 37.8366C32.9126 37.6729 32.7668 37.5274 32.6028 37.4054C32.2552 37.1472 31.8244 36.9951 31.3582 36.9956C30.8918 36.9961 30.4614 37.1495 30.1145 37.4084Z" fill="#2FBCB2"/>
<path fill-rule="evenodd" clip-rule="evenodd" d="M30.1145 37.4084C29.9503 37.5309 29.8048 37.6766 29.6834 37.8411C29.4252 38.1887 29.2729 38.6195 29.2735 39.0852C29.2737 39.2314 29.2891 39.3745 29.3178 39.5119C29.3603 39.7154 29.4322 39.9077 29.5292 40.0847C29.8374 40.6474 30.3974 41.0519 31.0576 41.1479C31.1575 41.1625 31.2593 41.17 31.3631 41.1698C31.467 41.1697 31.5688 41.1621 31.6685 41.1471C32.0166 41.0958 32.3368 40.9585 32.6062 40.757C32.7706 40.6353 32.916 40.4894 33.0375 40.3249C33.2961 39.9775 33.4483 39.5466 33.4478 39.0802C33.4471 38.614 33.2939 38.1834 33.035 37.8366C32.9126 37.6729 32.7668 37.5274 32.6028 37.4054C32.2552 37.1472 31.8244 36.9951 31.3582 36.9956C30.8918 36.9961 30.4614 37.1495 30.1145 37.4084Z" stroke="#36BDB2" stroke-width="0.5"/>
<path fill-rule="evenodd" clip-rule="evenodd" d="M32.0877 39.3058L33.3164 40.5316L34.7164 41.9281L34.8144 42.0259L36.0009 43.2097L35.4981 43.7138L31.5848 39.8099C31.7954 39.6915 31.9698 39.5161 32.0877 39.3058Z" fill="#2FBCB2"/>
<path fill-rule="evenodd" clip-rule="evenodd" d="M32.0877 39.3058L33.3164 40.5316L34.7164 41.9281L34.8144 42.0259L36.0009 43.2097L35.4981 43.7138L31.5848 39.8099C31.7954 39.6915 31.9698 39.5161 32.0877 39.3058Z" stroke="#36BDB2" stroke-width="0.5"/>
<path fill-rule="evenodd" clip-rule="evenodd" d="M27.2232 34.4524L27.496 34.7246L30.2816 37.5035C30.0711 37.6219 29.8966 37.7972 29.7788 38.0081L26.7197 34.9564L27.2232 34.4524Z" fill="#2FBCB2"/>
<path fill-rule="evenodd" clip-rule="evenodd" d="M27.2232 34.4524L27.496 34.7246L30.2816 37.5035C30.0711 37.6219 29.8966 37.7972 29.7788 38.0081L26.7197 34.9564L27.2232 34.4524Z" stroke="#36BDB2" stroke-width="0.5"/>
<path fill-rule="evenodd" clip-rule="evenodd" d="M29.7701 39.2906C29.898 39.5269 30.0972 39.719 30.3377 39.8404L29.2244 40.2514L27.7841 40.7833L27.7069 40.8114L25.6677 41.5643L25.421 40.8959L27.2983 40.2033L27.5492 40.1103L28.9778 39.5831L29.7701 39.2906Z" fill="#2FBCB2"/>
<path fill-rule="evenodd" clip-rule="evenodd" d="M29.7701 39.2906C29.898 39.5269 30.0972 39.719 30.3377 39.8404L29.2244 40.2514L27.7841 40.7833L27.7069 40.8114L25.6677 41.5643L25.421 40.8959L27.2983 40.2033L27.5492 40.1103L28.9778 39.5831L29.7701 39.2906Z" stroke="#36BDB2" stroke-width="0.5"/>
<path fill-rule="evenodd" clip-rule="evenodd" d="M32.1799 39.1042L32.1978 39.1535L32.1545 39.1696C32.1639 39.1483 32.1722 39.1262 32.1799 39.1042Z" fill="#2FBCB2"/>
<path fill-rule="evenodd" clip-rule="evenodd" d="M32.1799 39.1042L32.1978 39.1535L32.1545 39.1696C32.1639 39.1483 32.1722 39.1262 32.1799 39.1042Z" stroke="#36BDB2" stroke-width="0.5"/>
<path fill-rule="evenodd" clip-rule="evenodd" d="M31.7176 40.0212L31.7239 45.2822L31.0113 45.283L31.0051 40.0221L31.7176 40.0212Z" fill="#2FBCB2"/>
<path fill-rule="evenodd" clip-rule="evenodd" d="M31.7176 40.0212L31.7239 45.2822L31.0113 45.283L31.0051 40.0221L31.7176 40.0212Z" stroke="#36BDB2" stroke-width="0.5"/>
<path fill-rule="evenodd" clip-rule="evenodd" d="M35.4869 34.4425L35.991 34.9453L34.7996 36.1395L33.3135 37.6292L32.2573 38.688C32.2579 38.6774 32.2579 38.666 32.2579 38.6553C32.2576 38.3785 32.1724 38.1223 32.0277 37.9099L32.8094 37.1263L35.4869 34.4425Z" fill="#2FBCB2"/>
<path fill-rule="evenodd" clip-rule="evenodd" d="M35.4869 34.4425L35.991 34.9453L34.7996 36.1395L33.3135 37.6292L32.2573 38.688C32.2579 38.6774 32.2579 38.666 32.2579 38.6553C32.2576 38.3785 32.1724 38.1223 32.0277 37.9099L32.8094 37.1263L35.4869 34.4425Z" stroke="#36BDB2" stroke-width="0.5"/>
<path fill-rule="evenodd" clip-rule="evenodd" d="M31.3649 42.9669C32.1191 42.9661 32.7312 43.5766 32.7321 44.3309C32.733 45.0852 32.1224 45.6972 31.3682 45.6981C30.614 45.6991 30.0019 45.0884 30.0009 44.3342C30.0001 43.5801 30.6106 42.9679 31.3649 42.9669Z" fill="#2FBCB2"/>
<path fill-rule="evenodd" clip-rule="evenodd" d="M31.3649 42.9669C32.1191 42.9661 32.7312 43.5766 32.7321 44.3309C32.733 45.0852 32.1224 45.6972 31.3682 45.6981C30.614 45.6991 30.0019 45.0884 30.0009 44.3342C30.0001 43.5801 30.6106 42.9679 31.3649 42.9669Z" stroke="#36BDB2" stroke-width="0.5"/>
<path fill-rule="evenodd" clip-rule="evenodd" d="M35.5637 33.3834C36.3834 33.3824 37.0488 34.0462 37.0498 34.8659C37.0508 35.6857 36.3871 36.351 35.5672 36.352C34.7474 36.3531 34.0821 35.6893 34.0811 34.8695C34.0802 34.0497 34.7439 33.3844 35.5637 33.3834Z" fill="#2FBCB2"/>
<path fill-rule="evenodd" clip-rule="evenodd" d="M35.5637 33.3834C36.3834 33.3824 37.0488 34.0462 37.0498 34.8659C37.0508 35.6857 36.3871 36.351 35.5672 36.352C34.7474 36.3531 34.0821 35.6893 34.0811 34.8695C34.0802 34.0497 34.7439 33.3844 35.5637 33.3834Z" stroke="#36BDB2" stroke-width="0.5"/>
<path fill-rule="evenodd" clip-rule="evenodd" d="M27.4167 33.7649C28.1709 33.764 28.783 34.3746 28.7838 35.1289C28.7848 35.8831 28.1741 36.4952 27.42 36.4962C26.6657 36.497 26.0535 35.8863 26.0527 35.1321C26.0518 34.3779 26.6624 33.7659 27.4167 33.7649Z" fill="#2FBCB2"/>
<path fill-rule="evenodd" clip-rule="evenodd" d="M27.4167 33.7649C28.1709 33.764 28.783 34.3746 28.7838 35.1289C28.7848 35.8831 28.1741 36.4952 27.42 36.4962C26.6657 36.497 26.0535 35.8863 26.0527 35.1321C26.0518 34.3779 26.6624 33.7659 27.4167 33.7649Z" stroke="#36BDB2" stroke-width="0.5"/>
<path fill-rule="evenodd" clip-rule="evenodd" d="M26.4205 39.5156C27.1747 39.5148 27.7868 40.1254 27.7876 40.8795C27.7886 41.6337 27.1779 42.2459 26.4238 42.2468C25.6695 42.2477 25.0574 41.6371 25.0566 40.8828C25.0556 40.1287 25.6662 39.5165 26.4205 39.5156Z" fill="#2FBCB2"/>
<path fill-rule="evenodd" clip-rule="evenodd" d="M26.4205 39.5156C27.1747 39.5148 27.7868 40.1254 27.7876 40.8795C27.7886 41.6337 27.1779 42.2459 26.4238 42.2468C25.6695 42.2477 25.0574 41.6371 25.0566 40.8828C25.0556 40.1287 25.6662 39.5165 26.4205 39.5156Z" stroke="#36BDB2" stroke-width="0.5"/>
<path fill-rule="evenodd" clip-rule="evenodd" d="M35.2845 28.854C35.2327 28.6558 35.1519 28.4664 35.045 28.2921C34.8196 27.9225 34.477 27.6199 34.0452 27.4459C33.9095 27.3913 33.7712 27.3519 33.633 27.3271C33.4284 27.2902 33.2231 27.2849 33.0226 27.3084C32.3855 27.3832 31.8006 27.7508 31.4642 28.327C31.4131 28.414 31.3681 28.5057 31.3293 28.6019C31.2905 28.6982 31.2595 28.7956 31.2359 28.8936C31.153 29.2356 31.1604 29.5838 31.2462 29.9092C31.2975 30.1071 31.3782 30.2966 31.4852 30.4709C31.7104 30.841 32.0528 31.1435 32.4853 31.3179C32.9179 31.4921 33.3744 31.5112 33.7931 31.4011C33.9906 31.349 34.1802 31.2685 34.3548 31.162C34.7243 30.9367 35.027 30.5942 35.2012 30.1617C35.3754 29.7292 35.3947 29.2727 35.2845 28.854Z" fill="#2FBCB2"/>
<path fill-rule="evenodd" clip-rule="evenodd" d="M35.2845 28.854C35.2327 28.6558 35.1519 28.4664 35.045 28.2921C34.8196 27.9225 34.477 27.6199 34.0452 27.4459C33.9095 27.3913 33.7712 27.3519 33.633 27.3271C33.4284 27.2902 33.2231 27.2849 33.0226 27.3084C32.3855 27.3832 31.8006 27.7508 31.4642 28.327C31.4131 28.414 31.3681 28.5057 31.3293 28.6019C31.2905 28.6982 31.2595 28.7956 31.2359 28.8936C31.153 29.2356 31.1604 29.5838 31.2462 29.9092C31.2975 30.1071 31.3782 30.2966 31.4852 30.4709C31.7104 30.841 32.0528 31.1435 32.4853 31.3179C32.9179 31.4921 33.3744 31.5112 33.7931 31.4011C33.9906 31.349 34.1802 31.2685 34.3548 31.162C34.7243 30.9367 35.027 30.5942 35.2012 30.1617C35.3754 29.7292 35.3947 29.2727 35.2845 28.854Z" stroke="#36BDB2" stroke-width="0.5"/>
<path fill-rule="evenodd" clip-rule="evenodd" d="M39.1086 27.2813L38.754 27.4323L35.1337 28.9733C35.1028 28.7337 35.0056 28.5064 34.8542 28.318L38.8299 26.6256L39.1086 27.2813Z" fill="#2FBCB2"/>
<path fill-rule="evenodd" clip-rule="evenodd" d="M39.1086 27.2813L38.754 27.4323L35.1337 28.9733C35.1028 28.7337 35.0056 28.5064 34.8542 28.318L38.8299 26.6256L39.1086 27.2813Z" stroke="#36BDB2" stroke-width="0.5"/>
<path fill-rule="evenodd" clip-rule="evenodd" d="M38.1739 23.8921L38.171 23.9742L38.1244 25.5088L38.1027 26.215L38.8154 26.2141L38.8363 25.5307L38.8829 24.0087L38.8908 23.7412L38.9521 21.7412L38.2401 21.7194L38.1739 23.8921Z" fill="#2FBCB2"/>
<path fill-rule="evenodd" clip-rule="evenodd" d="M38.1739 23.8921L38.171 23.9742L38.1244 25.5088L38.1027 26.215L38.8154 26.2141L38.8363 25.5307L38.8829 24.0087L38.8908 23.7412L38.9521 21.7412L38.2401 21.7194L38.1739 23.8921Z" stroke="#36BDB2" stroke-width="0.5"/>
<path fill-rule="evenodd" clip-rule="evenodd" d="M32.7908 28.8357L31.8199 23.6652L32.5203 23.5337L33.4911 28.7042L32.7908 28.8357Z" fill="#2FBCB2"/>
<path fill-rule="evenodd" clip-rule="evenodd" d="M32.7908 28.8357L31.8199 23.6652L32.5203 23.5337L33.4911 28.7042L32.7908 28.8357Z" stroke="#36BDB2" stroke-width="0.5"/>
<path fill-rule="evenodd" clip-rule="evenodd" d="M36.0208 34.9464L35.3657 35.2253L34.705 33.6732L33.8808 31.7371L33.2951 30.3611C33.3047 30.3656 33.3153 30.3699 33.3252 30.3738C33.5818 30.4772 33.8513 30.4943 34.1025 30.4398L34.5361 31.4582L36.0208 34.9464Z" fill="#2FBCB2"/>
<path fill-rule="evenodd" clip-rule="evenodd" d="M36.0208 34.9464L35.3657 35.2253L34.705 33.6732L33.8808 31.7371L33.2951 30.3611C33.3047 30.3656 33.3153 30.3699 33.3252 30.3738C33.5818 30.4772 33.8513 30.4943 34.1025 30.4398L34.5361 31.4582L36.0208 34.9464Z" stroke="#36BDB2" stroke-width="0.5"/>
<path fill-rule="evenodd" clip-rule="evenodd" d="M32.5971 25.8751C31.856 26.0143 31.1422 25.5262 31.003 24.785C30.8639 24.0437 31.3519 23.33 32.0932 23.1908C32.8344 23.0516 33.5481 23.5397 33.6873 24.281C33.8265 25.0223 33.3384 25.7359 32.5971 25.8751Z" fill="#2FBCB2"/>
<path fill-rule="evenodd" clip-rule="evenodd" d="M32.5971 25.8751C31.856 26.0143 31.1422 25.5262 31.003 24.785C30.8639 24.0437 31.3519 23.33 32.0932 23.1908C32.8344 23.0516 33.5481 23.5397 33.6873 24.281C33.8265 25.0223 33.3384 25.7359 32.5971 25.8751Z" stroke="#36BDB2" stroke-width="0.5"/>
<path fill-rule="evenodd" clip-rule="evenodd" d="M32.7223 29.8869L27.6052 31.1085L27.4398 30.4156L32.5569 29.194L32.7223 29.8869Z" fill="#2FBCB2"/>
<path fill-rule="evenodd" clip-rule="evenodd" d="M32.7223 29.8869L27.6052 31.1085L27.4398 30.4156L32.5569 29.194L32.7223 29.8869Z" stroke="#36BDB2" stroke-width="0.5"/>
<path fill-rule="evenodd" clip-rule="evenodd" d="M29.775 30.2244C29.9501 30.9579 29.4974 31.6946 28.7638 31.8697C28.0302 32.0449 27.2935 31.5921 27.1185 30.8585C26.9433 30.1249 27.396 29.3884 28.1296 29.2132C28.8632 29.038 29.5998 29.4908 29.775 30.2244Z" fill="#2FBCB2"/>
<path fill-rule="evenodd" clip-rule="evenodd" d="M29.775 30.2244C29.9501 30.9579 29.4974 31.6946 28.7638 31.8697C28.0302 32.0449 27.2935 31.5921 27.1185 30.8585C26.9433 30.1249 27.396 29.3884 28.1296 29.2132C28.8632 29.038 29.5998 29.4908 29.775 30.2244Z" stroke="#36BDB2" stroke-width="0.5"/>
<path fill-rule="evenodd" clip-rule="evenodd" d="M36.974 35.4146C36.6677 36.175 35.8029 36.5431 35.0425 36.2368C34.2821 35.9305 33.914 35.0658 34.2203 34.3053C34.5266 33.545 35.3915 33.1768 36.1518 33.4831C36.9122 33.7895 37.2803 34.6543 36.974 35.4146Z" fill="#2FBCB2"/>
<path fill-rule="evenodd" clip-rule="evenodd" d="M36.974 35.4146C36.6677 36.175 35.8029 36.5431 35.0425 36.2368C34.2821 35.9305 33.914 35.0658 34.2203 34.3053C34.5266 33.545 35.3915 33.1768 36.1518 33.4831C36.9122 33.7895 37.2803 34.6543 36.974 35.4146Z" stroke="#36BDB2" stroke-width="0.5"/>
<path fill-rule="evenodd" clip-rule="evenodd" d="M39.8262 23.4233C39.5444 24.1229 38.7488 24.4615 38.0493 24.1797C37.3497 23.8979 37.0111 23.1023 37.2928 22.4028C37.5747 21.7032 38.3703 21.3646 39.0698 21.6464C39.7694 21.9282 40.108 22.7238 39.8262 23.4233Z" fill="#2FBCB2"/>
<path fill-rule="evenodd" clip-rule="evenodd" d="M39.8262 23.4233C39.5444 24.1229 38.7488 24.4615 38.0493 24.1797C37.3497 23.8979 37.0111 23.1023 37.2928 22.4028C37.5747 21.7032 38.3703 21.3646 39.0698 21.6464C39.7694 21.9282 40.108 22.7238 39.8262 23.4233Z" stroke="#36BDB2" stroke-width="0.5"/>
<path fill-rule="evenodd" clip-rule="evenodd" d="M44.5975 28.3548L44.5532 28.424L43.7318 29.721L43.3537 30.3179L43.9675 30.68L44.3333 30.1023L45.1484 28.8162L45.2915 28.5898L46.3625 26.8997L45.7607 26.5184L44.5975 28.3548Z" fill="#2FBCB2"/>
<path fill-rule="evenodd" clip-rule="evenodd" d="M44.5975 28.3548L44.5532 28.424L43.7318 29.721L43.3537 30.3179L43.9675 30.68L44.3333 30.1023L45.1484 28.8162L45.2915 28.5898L46.3625 26.8997L45.7607 26.5184L44.5975 28.3548Z" stroke="#36BDB2" stroke-width="0.5"/>
<path fill-rule="evenodd" clip-rule="evenodd" d="M40.2438 38.6435C40.4249 38.7392 40.6191 38.8078 40.8198 38.8466C41.2446 38.9302 41.699 38.8823 42.1192 38.6814C42.2511 38.6185 42.3737 38.543 42.4853 38.4581C42.6508 38.3321 42.7934 38.1843 42.9116 38.0207C43.287 37.5006 43.4113 36.821 43.2139 36.1836C43.1843 36.0872 43.1472 35.9921 43.1024 35.8983C43.0576 35.8047 43.0068 35.7161 42.9505 35.6325C42.7544 35.3402 42.4928 35.1104 42.195 34.9537C42.0143 34.8578 41.8202 34.7892 41.6194 34.7503C41.1945 34.6662 40.7399 34.7142 40.3193 34.9153C39.8987 35.1163 39.5759 35.4399 39.3741 35.8229C39.279 36.0037 39.2103 36.1979 39.1708 36.3984C39.0872 36.8232 39.1351 37.2776 39.3362 37.6983C39.5372 38.1191 39.8607 38.4419 40.2438 38.6435Z" fill="#2FBCB2"/>
<path fill-rule="evenodd" clip-rule="evenodd" d="M40.2438 38.6435C40.4249 38.7392 40.6191 38.8078 40.8198 38.8466C41.2446 38.9302 41.699 38.8823 42.1192 38.6814C42.2511 38.6185 42.3737 38.543 42.4853 38.4581C42.6508 38.3321 42.7934 38.1843 42.9116 38.0207C43.287 37.5006 43.4113 36.821 43.2139 36.1836C43.1843 36.0872 43.1472 35.9921 43.1024 35.8983C43.0576 35.8047 43.0068 35.7161 42.9505 35.6325C42.7544 35.3402 42.4928 35.1104 42.195 34.9537C42.0143 34.8578 41.8202 34.7892 41.6194 34.7503C41.1945 34.6662 40.7399 34.7142 40.3193 34.9153C39.8987 35.1163 39.5759 35.4399 39.3741 35.8229C39.279 36.0037 39.2103 36.1979 39.1708 36.3984C39.0872 36.8232 39.1351 37.2776 39.3362 37.6983C39.5372 38.1191 39.8607 38.4419 40.2438 38.6435Z" stroke="#36BDB2" stroke-width="0.5"/>
<path fill-rule="evenodd" clip-rule="evenodd" d="M41.1079 36.0462L41.6861 34.4096L42.3445 32.5451L42.3907 32.4145L42.949 30.8342L43.6203 31.0714L41.7793 36.2834C41.5818 36.1441 41.3485 36.0621 41.1079 36.0462Z" fill="#2FBCB2"/>
<path fill-rule="evenodd" clip-rule="evenodd" d="M41.1079 36.0462L41.6861 34.4096L42.3445 32.5451L42.3907 32.4145L42.949 30.8342L43.6203 31.0714L41.7793 36.2834C41.5818 36.1441 41.3485 36.0621 41.1079 36.0462Z" stroke="#36BDB2" stroke-width="0.5"/>
<path fill-rule="evenodd" clip-rule="evenodd" d="M42.8871 31.4543L41.5772 30.3157L40.0847 29.0186L39.9802 28.9276L38.7152 27.8282L39.1823 27.2908L43.3543 30.917C43.1522 31.0495 42.9903 31.2365 42.8871 31.4543Z" fill="#2FBCB2"/>
<path fill-rule="evenodd" clip-rule="evenodd" d="M42.8871 31.4543L41.5772 30.3157L40.0847 29.0186L39.9802 28.9276L38.7152 27.8282L39.1823 27.2908L43.3543 30.917C43.1522 31.0495 42.9903 31.2365 42.8871 31.4543Z" stroke="#36BDB2" stroke-width="0.5"/>
<path fill-rule="evenodd" clip-rule="evenodd" d="M39.6817 37.9389C39.6415 37.8402 39.5896 37.7436 39.536 37.6469L36.7483 39.4617L36.4252 39.672L36.8135 40.2694L39.8331 38.3034C39.7736 38.1785 39.7261 38.048 39.6817 37.9389Z" fill="#2FBCB2"/>
<path fill-rule="evenodd" clip-rule="evenodd" d="M39.6817 37.9389C39.6415 37.8402 39.5896 37.7436 39.536 37.6469L36.7483 39.4617L36.4252 39.672L36.8135 40.2694L39.8331 38.3034C39.7736 38.1785 39.7261 38.048 39.6817 37.9389Z" stroke="#36BDB2" stroke-width="0.5"/>
<path fill-rule="evenodd" clip-rule="evenodd" d="M42.055 38.2991C42.2582 38.1233 42.4029 37.8874 42.4696 37.6263L43.1108 38.6251L43.9402 39.9173L43.9842 39.9865L45.1584 41.8159L44.5588 42.2006L43.4782 40.5165L43.3335 40.2914L42.5112 39.0098L42.055 38.2991Z" fill="#2FBCB2"/>
<path fill-rule="evenodd" clip-rule="evenodd" d="M42.055 38.2991C42.2582 38.1233 42.4029 37.8874 42.4696 37.6263L43.1108 38.6251L43.9402 39.9173L43.9842 39.9865L45.1584 41.8159L44.5588 42.2006L43.4782 40.5165L43.3335 40.2914L42.5112 39.0098L42.055 38.2991Z" stroke="#36BDB2" stroke-width="0.5"/>
<path fill-rule="evenodd" clip-rule="evenodd" d="M41.3541 35.9858L41.3984 35.9578L41.4233 35.9967C41.4005 35.9919 41.3772 35.9886 41.3541 35.9858Z" fill="#2FBCB2"/>
<path fill-rule="evenodd" clip-rule="evenodd" d="M41.3541 35.9858L41.3984 35.9578L41.4233 35.9967C41.4005 35.9919 41.3772 35.9886 41.3541 35.9858Z" stroke="#36BDB2" stroke-width="0.5"/>
<path fill-rule="evenodd" clip-rule="evenodd" d="M41.9131 36.0722L46.6598 33.8036L46.9671 34.4465L42.2204 36.7151L41.9131 36.0722Z" fill="#2FBCB2"/>
<path fill-rule="evenodd" clip-rule="evenodd" d="M41.9131 36.0722L46.6598 33.8036L46.9671 34.4465L42.2204 36.7151L41.9131 36.0722Z" stroke="#36BDB2" stroke-width="0.5"/>
<path fill-rule="evenodd" clip-rule="evenodd" d="M35.2556 35.0693L35.4927 34.3979L37.0833 34.9598L39.0673 35.6607L40.4774 36.1587C40.4675 36.1628 40.4573 36.1677 40.4476 36.1723C40.198 36.2916 40.0033 36.4788 39.8737 36.7006L38.8301 36.332L35.2556 35.0693Z" fill="#2FBCB2"/>
<path fill-rule="evenodd" clip-rule="evenodd" d="M35.2556 35.0693L35.4927 34.3979L37.0833 34.9598L39.0673 35.6607L40.4774 36.1587C40.4675 36.1628 40.4573 36.1677 40.4476 36.1723C40.198 36.2916 40.0033 36.4788 39.8737 36.7006L38.8301 36.332L35.2556 35.0693Z" stroke="#36BDB2" stroke-width="0.5"/>
<path fill-rule="evenodd" clip-rule="evenodd" d="M44.7242 35.1236C44.399 34.4432 44.6869 33.6279 45.3675 33.3026C46.0479 32.9774 46.8632 33.2654 47.1884 33.9459C47.5137 34.6264 47.2257 35.4416 46.5453 35.7669C45.8647 36.0922 45.0495 35.8042 44.7242 35.1236Z" fill="#2FBCB2"/>
<path fill-rule="evenodd" clip-rule="evenodd" d="M44.7242 35.1236C44.399 34.4432 44.6869 33.6279 45.3675 33.3026C46.0479 32.9774 46.8632 33.2654 47.1884 33.9459C47.5137 34.6264 47.2257 35.4416 46.5453 35.7669C45.8647 36.0922 45.0495 35.8042 44.7242 35.1236Z" stroke="#36BDB2" stroke-width="0.5"/>
<path fill-rule="evenodd" clip-rule="evenodd" d="M34.2663 35.4553C33.9129 34.7158 34.2258 33.8295 34.9655 33.476C35.7052 33.1225 36.5913 33.4356 36.9448 34.1752C37.2983 34.9148 36.9853 35.8011 36.2457 36.1545C35.506 36.5081 34.6199 36.195 34.2663 35.4553Z" fill="#2FBCB2"/>
<path fill-rule="evenodd" clip-rule="evenodd" d="M34.2663 35.4553C33.9129 34.7158 34.2258 33.8295 34.9655 33.476C35.7052 33.1225 36.5913 33.4356 36.9448 34.1752C37.2983 34.9148 36.9853 35.8011 36.2457 36.1545C35.506 36.5081 34.6199 36.195 34.2663 35.4553Z" stroke="#36BDB2" stroke-width="0.5"/>
<path fill-rule="evenodd" clip-rule="evenodd" d="M35.7932 39.34C35.9492 38.6021 36.6738 38.1303 37.4116 38.2863C38.1496 38.4423 38.6213 39.1668 38.4653 39.9047C38.3093 40.6427 37.5848 41.1144 36.8469 40.9584C36.1089 40.8025 35.6372 40.0778 35.7932 39.34Z" fill="#2FBCB2"/>
<path fill-rule="evenodd" clip-rule="evenodd" d="M35.7932 39.34C35.9492 38.6021 36.6738 38.1303 37.4116 38.2863C38.1496 38.4423 38.6213 39.1668 38.4653 39.9047C38.3093 40.6427 37.5848 41.1144 36.8469 40.9584C36.1089 40.8025 35.6372 40.0778 35.7932 39.34Z" stroke="#36BDB2" stroke-width="0.5"/>
<path fill-rule="evenodd" clip-rule="evenodd" d="M42.9957 41.5218C42.8324 40.7855 43.2971 40.0563 44.0333 39.893C44.7697 39.7298 45.4989 40.1944 45.6622 40.9307C45.8255 41.667 45.3608 42.3963 44.6244 42.5596C43.8882 42.7227 43.1589 42.2582 42.9957 41.5218Z" fill="#2FBCB2"/>
<path fill-rule="evenodd" clip-rule="evenodd" d="M42.9957 41.5218C42.8324 40.7855 43.2971 40.0563 44.0333 39.893C44.7697 39.7298 45.4989 40.1944 45.6622 40.9307C45.8255 41.667 45.3608 42.3963 44.6244 42.5596C43.8882 42.7227 43.1589 42.2582 42.9957 41.5218Z" stroke="#36BDB2" stroke-width="0.5"/>
<path fill-rule="evenodd" clip-rule="evenodd" d="M34.6022 36.6186C34.7834 36.7143 34.9775 36.7829 35.1783 36.8218C35.6031 36.9053 36.0574 36.8574 36.4776 36.6566C36.6095 36.5936 36.7321 36.5181 36.8437 36.4332C37.0093 36.3072 37.1519 36.1594 37.27 35.9958C37.6454 35.4756 37.7697 34.7961 37.5724 34.1587C37.5427 34.0623 37.5056 33.9672 37.4608 33.8734C37.4161 33.7798 37.3653 33.6912 37.3089 33.6075C37.1129 33.3153 36.8512 33.0854 36.5534 32.9288C36.3727 32.8329 36.1786 32.7643 35.9778 32.7254C35.5529 32.6413 35.0983 32.6892 34.6777 32.8903C34.2571 33.0914 33.9343 33.4149 33.7325 33.7979C33.6374 33.9789 33.5687 34.173 33.5292 34.3736C33.4456 34.7984 33.4935 35.2527 33.6946 35.6735C33.8956 36.0942 34.2192 36.4169 34.6022 36.6186Z" fill="#2FBCB2"/>
<path fill-rule="evenodd" clip-rule="evenodd" d="M34.6022 36.6186C34.7834 36.7143 34.9775 36.7829 35.1783 36.8218C35.6031 36.9053 36.0574 36.8574 36.4776 36.6566C36.6095 36.5936 36.7321 36.5181 36.8437 36.4332C37.0093 36.3072 37.1519 36.1594 37.27 35.9958C37.6454 35.4756 37.7697 34.7961 37.5724 34.1587C37.5427 34.0623 37.5056 33.9672 37.4608 33.8734C37.4161 33.7798 37.3653 33.6912 37.3089 33.6075C37.1129 33.3153 36.8512 33.0854 36.5534 32.9288C36.3727 32.8329 36.1786 32.7643 35.9778 32.7254C35.5529 32.6413 35.0983 32.6892 34.6777 32.8903C34.2571 33.0914 33.9343 33.4149 33.7325 33.7979C33.6374 33.9789 33.5687 34.173 33.5292 34.3736C33.4456 34.7984 33.4935 35.2527 33.6946 35.6735C33.8956 36.0942 34.2192 36.4169 34.6022 36.6186Z" stroke="#36BDB2" stroke-width="0.5"/>
<path fill-rule="evenodd" clip-rule="evenodd" d="M35.8239 42.0264C36.5782 42.0255 37.1903 42.6361 37.1911 43.3903C37.1921 44.1445 36.5814 44.7567 35.8273 44.7575C35.073 44.7584 34.4609 44.1478 34.46 43.3936C34.4591 42.6394 35.0697 42.0272 35.8239 42.0264Z" fill="#2FBCB2"/>
<path fill-rule="evenodd" clip-rule="evenodd" d="M35.8239 42.0264C36.5782 42.0255 37.1903 42.6361 37.1911 43.3903C37.1921 44.1445 36.5814 44.7567 35.8273 44.7575C35.073 44.7584 34.4609 44.1478 34.46 43.3936C34.4591 42.6394 35.0697 42.0272 35.8239 42.0264Z" stroke="#36BDB2" stroke-width="0.5"/>
<path fill-rule="evenodd" clip-rule="evenodd" d="M39.7772 27.5459C39.4954 28.2454 38.6998 28.584 38.0003 28.3023C37.3007 28.0205 36.962 27.2249 37.2438 26.5254C37.5257 25.8258 38.3212 25.4871 39.0208 25.769C39.7204 26.0508 40.059 26.8463 39.7772 27.5459Z" fill="#2FBCB2"/>
<path fill-rule="evenodd" clip-rule="evenodd" d="M39.7772 27.5459C39.4954 28.2454 38.6998 28.584 38.0003 28.3023C37.3007 28.0205 36.962 27.2249 37.2438 26.5254C37.5257 25.8258 38.3212 25.4871 39.0208 25.769C39.7204 26.0508 40.059 26.8463 39.7772 27.5459Z" stroke="#36BDB2" stroke-width="0.5"/>
<path fill-rule="evenodd" clip-rule="evenodd" d="M44.5491 31.5477C44.2673 32.2472 43.4717 32.5859 42.7722 32.3041C42.0726 32.0223 41.734 31.2267 42.0157 30.5272C42.2976 29.8276 43.0932 29.4889 43.7927 29.7708C44.4923 30.0525 44.8309 30.8481 44.5491 31.5477Z" fill="#2FBCB2"/>
<path fill-rule="evenodd" clip-rule="evenodd" d="M44.5491 31.5477C44.2673 32.2472 43.4717 32.5859 42.7722 32.3041C42.0726 32.0223 41.734 31.2267 42.0157 30.5272C42.2976 29.8276 43.0932 29.4889 43.7927 29.7708C44.4923 30.0525 44.8309 30.8481 44.5491 31.5477Z" stroke="#36BDB2" stroke-width="0.5"/>
<path fill-rule="evenodd" clip-rule="evenodd" d="M47.5853 26.9198C47.3035 27.6193 46.5079 27.9579 45.8084 27.6762C45.1088 27.3944 44.7701 26.5988 45.0519 25.8993C45.3338 25.1997 46.1293 24.861 46.8289 25.1429C47.5285 25.4246 47.8671 26.2202 47.5853 26.9198Z" fill="#2FBCB2"/>
<path fill-rule="evenodd" clip-rule="evenodd" d="M47.5853 26.9198C47.3035 27.6193 46.5079 27.9579 45.8084 27.6762C45.1088 27.3944 44.7701 26.5988 45.0519 25.8993C45.3338 25.1997 46.1293 24.861 46.8289 25.1429C47.5285 25.4246 47.8671 26.2202 47.5853 26.9198Z" stroke="#36BDB2" stroke-width="0.5"/>
</g>
<defs>
<filter id="filter0_dd" x="31.0001" y="0" width="72" height="72" filterUnits="userSpaceOnUse" color-interpolation-filters="sRGB">
<feFlood flood-opacity="0" result="BackgroundImageFix"/>
<feColorMatrix in="SourceAlpha" type="matrix" values="0 0 0 0 0 0 0 0 0 0 0 0 0 0 0 0 0 0 127 0"/>
<feOffset dy="2"/>
<feGaussianBlur stdDeviation="8"/>
<feColorMatrix type="matrix" values="0 0 0 0 0.03 0 0 0 0 0.17 0 0 0 0 0.160071 0 0 0 0.06 0"/>
<feBlend mode="normal" in2="BackgroundImageFix" result="effect1_dropShadow"/>
<feColorMatrix in="SourceAlpha" type="matrix" values="0 0 0 0 0 0 0 0 0 0 0 0 0 0 0 0 0 0 127 0"/>
<feOffset dy="2"/>
<feGaussianBlur stdDeviation="1"/>
<feColorMatrix type="matrix" values="0 0 0 0 0.0313726 0 0 0 0 0.168627 0 0 0 0 0.160784 0 0 0 0.04 0"/>
<feBlend mode="normal" in2="effect1_dropShadow" result="effect2_dropShadow"/>
<feBlend mode="normal" in="SourceGraphic" in2="effect2_dropShadow" result="shape"/>
</filter>
<filter id="filter1_dd" x="0" y="0" width="72" height="72" filterUnits="userSpaceOnUse" color-interpolation-filters="sRGB">
<feFlood flood-opacity="0" result="BackgroundImageFix"/>
<feColorMatrix in="SourceAlpha" type="matrix" values="0 0 0 0 0 0 0 0 0 0 0 0 0 0 0 0 0 0 127 0"/>
<feOffset dy="2"/>
<feGaussianBlur stdDeviation="8"/>
<feColorMatrix type="matrix" values="0 0 0 0 0.03 0 0 0 0 0.17 0 0 0 0 0.160071 0 0 0 0.06 0"/>
<feBlend mode="normal" in2="BackgroundImageFix" result="effect1_dropShadow"/>
<feColorMatrix in="SourceAlpha" type="matrix" values="0 0 0 0 0 0 0 0 0 0 0 0 0 0 0 0 0 0 127 0"/>
<feOffset dy="2"/>
<feGaussianBlur stdDeviation="1"/>
<feColorMatrix type="matrix" values="0 0 0 0 0.0313726 0 0 0 0 0.168627 0 0 0 0 0.160784 0 0 0 0.04 0"/>
<feBlend mode="normal" in2="effect1_dropShadow" result="effect2_dropShadow"/>
<feBlend mode="normal" in="SourceGraphic" in2="effect2_dropShadow" result="shape"/>
</filter>
<clipPath id="clip0">
<rect width="18" height="31" fill="white" transform="translate(58.0001 19)"/>
</clipPath>
</defs>
</svg>
