<svg width="56" height="56" viewBox="0 0 56 56" fill="none" xmlns="http://www.w3.org/2000/svg">
<g filter="url(#filter0_dd)">
<circle cx="28" cy="28" r="20" fill="white"/>
<path fill-rule="evenodd" clip-rule="evenodd" d="M22.1145 31.4084C21.9503 31.5309 21.8048 31.6766 21.6834 31.8411C21.4252 32.1887 21.273 32.6195 21.2735 33.0852C21.2737 33.2314 21.2891 33.3745 21.3178 33.5119C21.3603 33.7154 21.4323 33.9077 21.5292 34.0847C21.8375 34.6474 22.3974 35.0519 23.0577 35.1479C23.1575 35.1625 23.2593 35.17 23.3631 35.1698C23.467 35.1697 23.5688 35.1621 23.6686 35.1471C24.0167 35.0958 24.3368 34.9585 24.6062 34.757C24.7706 34.6353 24.916 34.4894 25.0375 34.3249C25.2961 33.9775 25.4483 33.5466 25.4478 33.0802C25.4472 32.614 25.294 32.1834 25.035 31.8366C24.9126 31.6729 24.7668 31.5274 24.6028 31.4054C24.2552 31.1472 23.8244 30.9951 23.3582 30.9956C22.8918 30.9961 22.4614 31.1495 22.1145 31.4084Z" fill="#2FBCB2"/>
<path fill-rule="evenodd" clip-rule="evenodd" d="M22.1145 31.4084C21.9503 31.5309 21.8048 31.6766 21.6834 31.8411C21.4252 32.1887 21.273 32.6195 21.2735 33.0852C21.2737 33.2314 21.2891 33.3745 21.3178 33.5119C21.3603 33.7154 21.4323 33.9077 21.5292 34.0847C21.8375 34.6474 22.3974 35.0519 23.0577 35.1479C23.1575 35.1625 23.2593 35.17 23.3631 35.1698C23.467 35.1697 23.5688 35.1621 23.6686 35.1471C24.0167 35.0958 24.3368 34.9585 24.6062 34.757C24.7706 34.6353 24.916 34.4894 25.0375 34.3249C25.2961 33.9775 25.4483 33.5466 25.4478 33.0802C25.4472 32.614 25.294 32.1834 25.035 31.8366C24.9126 31.6729 24.7668 31.5274 24.6028 31.4054C24.2552 31.1472 23.8244 30.9951 23.3582 30.9956C22.8918 30.9961 22.4614 31.1495 22.1145 31.4084Z" stroke="#36BDB2" stroke-width="0.5"/>
<path fill-rule="evenodd" clip-rule="evenodd" d="M24.0877 33.3058L25.3164 34.5316L26.7164 35.9281L26.8144 36.0259L28.0009 37.2097L27.4981 37.7138L23.5848 33.8099C23.7954 33.6915 23.9698 33.5161 24.0877 33.3058Z" fill="#2FBCB2"/>
<path fill-rule="evenodd" clip-rule="evenodd" d="M24.0877 33.3058L25.3164 34.5316L26.7164 35.9281L26.8144 36.0259L28.0009 37.2097L27.4981 37.7138L23.5848 33.8099C23.7954 33.6915 23.9698 33.5161 24.0877 33.3058Z" stroke="#36BDB2" stroke-width="0.5"/>
<path fill-rule="evenodd" clip-rule="evenodd" d="M19.2232 28.4524L19.496 28.7246L22.2816 31.5035C22.0711 31.6219 21.8967 31.7972 21.7788 32.0081L18.7197 28.9564L19.2232 28.4524Z" fill="#2FBCB2"/>
<path fill-rule="evenodd" clip-rule="evenodd" d="M19.2232 28.4524L19.496 28.7246L22.2816 31.5035C22.0711 31.6219 21.8967 31.7972 21.7788 32.0081L18.7197 28.9564L19.2232 28.4524Z" stroke="#36BDB2" stroke-width="0.5"/>
<path fill-rule="evenodd" clip-rule="evenodd" d="M21.7701 33.2906C21.898 33.5269 22.0972 33.719 22.3377 33.8404L21.2244 34.2514L19.7841 34.7833L19.7069 34.8114L17.6677 35.5643L17.421 34.8959L19.2983 34.2033L19.5492 34.1103L20.9778 33.5831L21.7701 33.2906Z" fill="#2FBCB2"/>
<path fill-rule="evenodd" clip-rule="evenodd" d="M21.7701 33.2906C21.898 33.5269 22.0972 33.719 22.3377 33.8404L21.2244 34.2514L19.7841 34.7833L19.7069 34.8114L17.6677 35.5643L17.421 34.8959L19.2983 34.2033L19.5492 34.1103L20.9778 33.5831L21.7701 33.2906Z" stroke="#36BDB2" stroke-width="0.5"/>
<path fill-rule="evenodd" clip-rule="evenodd" d="M24.1799 33.1042L24.1978 33.1535L24.1545 33.1696C24.164 33.1483 24.1722 33.1262 24.1799 33.1042Z" fill="#2FBCB2"/>
<path fill-rule="evenodd" clip-rule="evenodd" d="M24.1799 33.1042L24.1978 33.1535L24.1545 33.1696C24.164 33.1483 24.1722 33.1262 24.1799 33.1042Z" stroke="#36BDB2" stroke-width="0.5"/>
<path fill-rule="evenodd" clip-rule="evenodd" d="M23.7176 34.0212L23.7239 39.2822L23.0113 39.283L23.0051 34.0221L23.7176 34.0212Z" fill="#2FBCB2"/>
<path fill-rule="evenodd" clip-rule="evenodd" d="M23.7176 34.0212L23.7239 39.2822L23.0113 39.283L23.0051 34.0221L23.7176 34.0212Z" stroke="#36BDB2" stroke-width="0.5"/>
<path fill-rule="evenodd" clip-rule="evenodd" d="M27.4869 28.4425L27.991 28.9453L26.7996 30.1395L25.3135 31.6292L24.2574 32.688C24.2579 32.6774 24.2579 32.666 24.2579 32.6553C24.2576 32.3785 24.1724 32.1223 24.0278 31.9099L24.8094 31.1263L27.4869 28.4425Z" fill="#2FBCB2"/>
<path fill-rule="evenodd" clip-rule="evenodd" d="M27.4869 28.4425L27.991 28.9453L26.7996 30.1395L25.3135 31.6292L24.2574 32.688C24.2579 32.6774 24.2579 32.666 24.2579 32.6553C24.2576 32.3785 24.1724 32.1223 24.0278 31.9099L24.8094 31.1263L27.4869 28.4425Z" stroke="#36BDB2" stroke-width="0.5"/>
<path fill-rule="evenodd" clip-rule="evenodd" d="M23.3649 36.9669C24.1192 36.9661 24.7312 37.5766 24.7321 38.3309C24.7331 39.0852 24.1224 39.6972 23.3682 39.6981C22.614 39.6991 22.0019 39.0884 22.0009 38.3342C22.0001 37.5801 22.6107 36.9679 23.3649 36.9669Z" fill="#2FBCB2"/>
<path fill-rule="evenodd" clip-rule="evenodd" d="M23.3649 36.9669C24.1192 36.9661 24.7312 37.5766 24.7321 38.3309C24.7331 39.0852 24.1224 39.6972 23.3682 39.6981C22.614 39.6991 22.0019 39.0884 22.0009 38.3342C22.0001 37.5801 22.6107 36.9679 23.3649 36.9669Z" stroke="#36BDB2" stroke-width="0.5"/>
<path fill-rule="evenodd" clip-rule="evenodd" d="M27.5637 27.3834C28.3834 27.3824 29.0488 28.0462 29.0498 28.8659C29.0508 29.6857 28.3871 30.351 27.5672 30.352C26.7474 30.3531 26.0821 29.6893 26.0811 28.8695C26.0802 28.0497 26.7439 27.3844 27.5637 27.3834Z" fill="#2FBCB2"/>
<path fill-rule="evenodd" clip-rule="evenodd" d="M27.5637 27.3834C28.3834 27.3824 29.0488 28.0462 29.0498 28.8659C29.0508 29.6857 28.3871 30.351 27.5672 30.352C26.7474 30.3531 26.0821 29.6893 26.0811 28.8695C26.0802 28.0497 26.7439 27.3844 27.5637 27.3834Z" stroke="#36BDB2" stroke-width="0.5"/>
<path fill-rule="evenodd" clip-rule="evenodd" d="M19.4167 27.7649C20.1709 27.764 20.783 28.3746 20.7838 29.1289C20.7848 29.8831 20.1741 30.4952 19.42 30.4962C18.6657 30.497 18.0535 29.8863 18.0527 29.1321C18.0518 28.3779 18.6624 27.7659 19.4167 27.7649Z" fill="#2FBCB2"/>
<path fill-rule="evenodd" clip-rule="evenodd" d="M19.4167 27.7649C20.1709 27.764 20.783 28.3746 20.7838 29.1289C20.7848 29.8831 20.1741 30.4952 19.42 30.4962C18.6657 30.497 18.0535 29.8863 18.0527 29.1321C18.0518 28.3779 18.6624 27.7659 19.4167 27.7649Z" stroke="#36BDB2" stroke-width="0.5"/>
<path fill-rule="evenodd" clip-rule="evenodd" d="M18.4205 33.5156C19.1747 33.5148 19.7868 34.1254 19.7876 34.8795C19.7886 35.6337 19.1779 36.2459 18.4238 36.2468C17.6695 36.2477 17.0574 35.6371 17.0566 34.8828C17.0556 34.1287 17.6662 33.5165 18.4205 33.5156Z" fill="#2FBCB2"/>
<path fill-rule="evenodd" clip-rule="evenodd" d="M18.4205 33.5156C19.1747 33.5148 19.7868 34.1254 19.7876 34.8795C19.7886 35.6337 19.1779 36.2459 18.4238 36.2468C17.6695 36.2477 17.0574 35.6371 17.0566 34.8828C17.0556 34.1287 17.6662 33.5165 18.4205 33.5156Z" stroke="#36BDB2" stroke-width="0.5"/>
<path fill-rule="evenodd" clip-rule="evenodd" d="M27.2846 22.854C27.2327 22.6558 27.1519 22.4664 27.045 22.2921C26.8196 21.9225 26.4771 21.6199 26.0452 21.4459C25.9095 21.3913 25.7712 21.3519 25.633 21.3271C25.4284 21.2902 25.2231 21.2849 25.0227 21.3084C24.3855 21.3832 23.8006 21.7508 23.4642 22.327C23.4131 22.414 23.3681 22.5057 23.3293 22.6019C23.2905 22.6982 23.2595 22.7956 23.2359 22.8936C23.153 23.2356 23.1604 23.5838 23.2462 23.9092C23.2975 24.1071 23.3782 24.2966 23.4852 24.4709C23.7104 24.841 24.0528 25.1435 24.4854 25.3179C24.9179 25.4921 25.3744 25.5112 25.7931 25.4011C25.9906 25.349 26.1802 25.2685 26.3548 25.162C26.7243 24.9367 27.027 24.5942 27.2012 24.1617C27.3754 23.7292 27.3947 23.2727 27.2846 22.854Z" fill="#2FBCB2"/>
<path fill-rule="evenodd" clip-rule="evenodd" d="M27.2846 22.854C27.2327 22.6558 27.1519 22.4664 27.045 22.2921C26.8196 21.9225 26.4771 21.6199 26.0452 21.4459C25.9095 21.3913 25.7712 21.3519 25.633 21.3271C25.4284 21.2902 25.2231 21.2849 25.0227 21.3084C24.3855 21.3832 23.8006 21.7508 23.4642 22.327C23.4131 22.414 23.3681 22.5057 23.3293 22.6019C23.2905 22.6982 23.2595 22.7956 23.2359 22.8936C23.153 23.2356 23.1604 23.5838 23.2462 23.9092C23.2975 24.1071 23.3782 24.2966 23.4852 24.4709C23.7104 24.841 24.0528 25.1435 24.4854 25.3179C24.9179 25.4921 25.3744 25.5112 25.7931 25.4011C25.9906 25.349 26.1802 25.2685 26.3548 25.162C26.7243 24.9367 27.027 24.5942 27.2012 24.1617C27.3754 23.7292 27.3947 23.2727 27.2846 22.854Z" stroke="#36BDB2" stroke-width="0.5"/>
<path fill-rule="evenodd" clip-rule="evenodd" d="M31.1086 21.2813L30.754 21.4323L27.1337 22.9733C27.1028 22.7337 27.0056 22.5064 26.8543 22.318L30.8299 20.6256L31.1086 21.2813Z" fill="#2FBCB2"/>
<path fill-rule="evenodd" clip-rule="evenodd" d="M31.1086 21.2813L30.754 21.4323L27.1337 22.9733C27.1028 22.7337 27.0056 22.5064 26.8543 22.318L30.8299 20.6256L31.1086 21.2813Z" stroke="#36BDB2" stroke-width="0.5"/>
<path fill-rule="evenodd" clip-rule="evenodd" d="M30.1738 17.8921L30.171 17.9742L30.1243 19.5088L30.1027 20.215L30.8154 20.2141L30.8363 19.5307L30.8829 18.0087L30.8908 17.7412L30.9521 15.7412L30.2401 15.7194L30.1738 17.8921Z" fill="#2FBCB2"/>
<path fill-rule="evenodd" clip-rule="evenodd" d="M30.1738 17.8921L30.171 17.9742L30.1243 19.5088L30.1027 20.215L30.8154 20.2141L30.8363 19.5307L30.8829 18.0087L30.8908 17.7412L30.9521 15.7412L30.2401 15.7194L30.1738 17.8921Z" stroke="#36BDB2" stroke-width="0.5"/>
<path fill-rule="evenodd" clip-rule="evenodd" d="M24.7908 22.8357L23.8199 17.6652L24.5203 17.5337L25.4911 22.7042L24.7908 22.8357Z" fill="#2FBCB2"/>
<path fill-rule="evenodd" clip-rule="evenodd" d="M24.7908 22.8357L23.8199 17.6652L24.5203 17.5337L25.4911 22.7042L24.7908 22.8357Z" stroke="#36BDB2" stroke-width="0.5"/>
<path fill-rule="evenodd" clip-rule="evenodd" d="M28.0208 28.9464L27.3657 29.2253L26.705 27.6732L25.8808 25.7371L25.2951 24.3611C25.3047 24.3656 25.3153 24.3699 25.3252 24.3738C25.5818 24.4772 25.8513 24.4943 26.1025 24.4398L26.5361 25.4582L28.0208 28.9464Z" fill="#2FBCB2"/>
<path fill-rule="evenodd" clip-rule="evenodd" d="M28.0208 28.9464L27.3657 29.2253L26.705 27.6732L25.8808 25.7371L25.2951 24.3611C25.3047 24.3656 25.3153 24.3699 25.3252 24.3738C25.5818 24.4772 25.8513 24.4943 26.1025 24.4398L26.5361 25.4582L28.0208 28.9464Z" stroke="#36BDB2" stroke-width="0.5"/>
<path fill-rule="evenodd" clip-rule="evenodd" d="M24.5971 19.8751C23.856 20.0143 23.1422 19.5262 23.003 18.785C22.8639 18.0437 23.3519 17.33 24.0932 17.1908C24.8344 17.0516 25.5481 17.5397 25.6873 18.281C25.8265 19.0223 25.3384 19.7359 24.5971 19.8751Z" fill="#2FBCB2"/>
<path fill-rule="evenodd" clip-rule="evenodd" d="M24.5971 19.8751C23.856 20.0143 23.1422 19.5262 23.003 18.785C22.8639 18.0437 23.3519 17.33 24.0932 17.1908C24.8344 17.0516 25.5481 17.5397 25.6873 18.281C25.8265 19.0223 25.3384 19.7359 24.5971 19.8751Z" stroke="#36BDB2" stroke-width="0.5"/>
<path fill-rule="evenodd" clip-rule="evenodd" d="M24.7223 23.8869L19.6052 25.1085L19.4398 24.4156L24.5569 23.194L24.7223 23.8869Z" fill="#2FBCB2"/>
<path fill-rule="evenodd" clip-rule="evenodd" d="M24.7223 23.8869L19.6052 25.1085L19.4398 24.4156L24.5569 23.194L24.7223 23.8869Z" stroke="#36BDB2" stroke-width="0.5"/>
<path fill-rule="evenodd" clip-rule="evenodd" d="M21.775 24.2244C21.9501 24.9579 21.4974 25.6946 20.7638 25.8697C20.0302 26.0449 19.2935 25.5921 19.1185 24.8585C18.9433 24.1249 19.396 23.3884 20.1297 23.2132C20.8632 23.038 21.5998 23.4908 21.775 24.2244Z" fill="#2FBCB2"/>
<path fill-rule="evenodd" clip-rule="evenodd" d="M21.775 24.2244C21.9501 24.9579 21.4974 25.6946 20.7638 25.8697C20.0302 26.0449 19.2935 25.5921 19.1185 24.8585C18.9433 24.1249 19.396 23.3884 20.1297 23.2132C20.8632 23.038 21.5998 23.4908 21.775 24.2244Z" stroke="#36BDB2" stroke-width="0.5"/>
<path fill-rule="evenodd" clip-rule="evenodd" d="M28.974 29.4146C28.6677 30.175 27.8029 30.5431 27.0425 30.2368C26.2822 29.9305 25.914 29.0658 26.2203 28.3053C26.5267 27.545 27.3915 27.1768 28.1518 27.4831C28.9122 27.7895 29.2803 28.6543 28.974 29.4146Z" fill="#2FBCB2"/>
<path fill-rule="evenodd" clip-rule="evenodd" d="M28.974 29.4146C28.6677 30.175 27.8029 30.5431 27.0425 30.2368C26.2822 29.9305 25.914 29.0658 26.2203 28.3053C26.5267 27.545 27.3915 27.1768 28.1518 27.4831C28.9122 27.7895 29.2803 28.6543 28.974 29.4146Z" stroke="#36BDB2" stroke-width="0.5"/>
<path fill-rule="evenodd" clip-rule="evenodd" d="M31.8262 17.4233C31.5445 18.1229 30.7489 18.4615 30.0493 18.1797C29.3497 17.8979 29.0111 17.1023 29.2928 16.4028C29.5747 15.7032 30.3703 15.3646 31.0698 15.6464C31.7694 15.9282 32.108 16.7238 31.8262 17.4233Z" fill="#2FBCB2"/>
<path fill-rule="evenodd" clip-rule="evenodd" d="M31.8262 17.4233C31.5445 18.1229 30.7489 18.4615 30.0493 18.1797C29.3497 17.8979 29.0111 17.1023 29.2928 16.4028C29.5747 15.7032 30.3703 15.3646 31.0698 15.6464C31.7694 15.9282 32.108 16.7238 31.8262 17.4233Z" stroke="#36BDB2" stroke-width="0.5"/>
<path fill-rule="evenodd" clip-rule="evenodd" d="M36.5975 22.3548L36.5532 22.424L35.7318 23.721L35.3537 24.3179L35.9675 24.68L36.3333 24.1023L37.1484 22.8162L37.2915 22.5898L38.3625 20.8997L37.7607 20.5184L36.5975 22.3548Z" fill="#2FBCB2"/>
<path fill-rule="evenodd" clip-rule="evenodd" d="M36.5975 22.3548L36.5532 22.424L35.7318 23.721L35.3537 24.3179L35.9675 24.68L36.3333 24.1023L37.1484 22.8162L37.2915 22.5898L38.3625 20.8997L37.7607 20.5184L36.5975 22.3548Z" stroke="#36BDB2" stroke-width="0.5"/>
<path fill-rule="evenodd" clip-rule="evenodd" d="M32.2438 32.6435C32.4249 32.7392 32.6191 32.8078 32.8198 32.8466C33.2447 32.9302 33.699 32.8823 34.1192 32.6814C34.2511 32.6185 34.3737 32.543 34.4853 32.4581C34.6508 32.3321 34.7934 32.1843 34.9116 32.0207C35.287 31.5006 35.4113 30.821 35.214 30.1836C35.1843 30.0872 35.1472 29.9921 35.1024 29.8983C35.0576 29.8047 35.0069 29.7161 34.9505 29.6325C34.7544 29.3402 34.4928 29.1104 34.195 28.9537C34.0143 28.8578 33.8202 28.7892 33.6194 28.7503C33.1945 28.6662 32.7399 28.7142 32.3193 28.9153C31.8987 29.1163 31.5759 29.4399 31.3741 29.8229C31.279 30.0037 31.2103 30.1979 31.1708 30.3984C31.0872 30.8232 31.1351 31.2776 31.3362 31.6983C31.5372 32.1191 31.8607 32.4419 32.2438 32.6435Z" fill="#2FBCB2"/>
<path fill-rule="evenodd" clip-rule="evenodd" d="M32.2438 32.6435C32.4249 32.7392 32.6191 32.8078 32.8198 32.8466C33.2447 32.9302 33.699 32.8823 34.1192 32.6814C34.2511 32.6185 34.3737 32.543 34.4853 32.4581C34.6508 32.3321 34.7934 32.1843 34.9116 32.0207C35.287 31.5006 35.4113 30.821 35.214 30.1836C35.1843 30.0872 35.1472 29.9921 35.1024 29.8983C35.0576 29.8047 35.0069 29.7161 34.9505 29.6325C34.7544 29.3402 34.4928 29.1104 34.195 28.9537C34.0143 28.8578 33.8202 28.7892 33.6194 28.7503C33.1945 28.6662 32.7399 28.7142 32.3193 28.9153C31.8987 29.1163 31.5759 29.4399 31.3741 29.8229C31.279 30.0037 31.2103 30.1979 31.1708 30.3984C31.0872 30.8232 31.1351 31.2776 31.3362 31.6983C31.5372 32.1191 31.8607 32.4419 32.2438 32.6435Z" stroke="#36BDB2" stroke-width="0.5"/>
<path fill-rule="evenodd" clip-rule="evenodd" d="M33.1079 30.0462L33.6861 28.4096L34.3445 26.5451L34.3907 26.4145L34.949 24.8342L35.6203 25.0714L33.7793 30.2834C33.5818 30.1441 33.3485 30.0621 33.1079 30.0462Z" fill="#2FBCB2"/>
<path fill-rule="evenodd" clip-rule="evenodd" d="M33.1079 30.0462L33.6861 28.4096L34.3445 26.5451L34.3907 26.4145L34.949 24.8342L35.6203 25.0714L33.7793 30.2834C33.5818 30.1441 33.3485 30.0621 33.1079 30.0462Z" stroke="#36BDB2" stroke-width="0.5"/>
<path fill-rule="evenodd" clip-rule="evenodd" d="M34.8871 25.4543L33.5772 24.3157L32.0847 23.0186L31.9802 22.9276L30.7152 21.8282L31.1823 21.2908L35.3543 24.917C35.1522 25.0495 34.9903 25.2365 34.8871 25.4543Z" fill="#2FBCB2"/>
<path fill-rule="evenodd" clip-rule="evenodd" d="M34.8871 25.4543L33.5772 24.3157L32.0847 23.0186L31.9802 22.9276L30.7152 21.8282L31.1823 21.2908L35.3543 24.917C35.1522 25.0495 34.9903 25.2365 34.8871 25.4543Z" stroke="#36BDB2" stroke-width="0.5"/>
<path fill-rule="evenodd" clip-rule="evenodd" d="M31.6817 31.9389C31.6415 31.8402 31.5896 31.7436 31.536 31.6469L28.7483 33.4617L28.4252 33.672L28.8135 34.2694L31.8331 32.3034C31.7736 32.1785 31.7261 32.048 31.6817 31.9389Z" fill="#2FBCB2"/>
<path fill-rule="evenodd" clip-rule="evenodd" d="M31.6817 31.9389C31.6415 31.8402 31.5896 31.7436 31.536 31.6469L28.7483 33.4617L28.4252 33.672L28.8135 34.2694L31.8331 32.3034C31.7736 32.1785 31.7261 32.048 31.6817 31.9389Z" stroke="#36BDB2" stroke-width="0.5"/>
<path fill-rule="evenodd" clip-rule="evenodd" d="M34.055 32.2991C34.2582 32.1233 34.4029 31.8874 34.4696 31.6263L35.1108 32.6251L35.9402 33.9173L35.9842 33.9865L37.1584 35.8159L36.5588 36.2006L35.4782 34.5165L35.3335 34.2914L34.5112 33.0098L34.055 32.2991Z" fill="#2FBCB2"/>
<path fill-rule="evenodd" clip-rule="evenodd" d="M34.055 32.2991C34.2582 32.1233 34.4029 31.8874 34.4696 31.6263L35.1108 32.6251L35.9402 33.9173L35.9842 33.9865L37.1584 35.8159L36.5588 36.2006L35.4782 34.5165L35.3335 34.2914L34.5112 33.0098L34.055 32.2991Z" stroke="#36BDB2" stroke-width="0.5"/>
<path fill-rule="evenodd" clip-rule="evenodd" d="M33.3541 29.9858L33.3984 29.9578L33.4233 29.9967C33.4005 29.9919 33.3771 29.9886 33.3541 29.9858Z" fill="#2FBCB2"/>
<path fill-rule="evenodd" clip-rule="evenodd" d="M33.3541 29.9858L33.3984 29.9578L33.4233 29.9967C33.4005 29.9919 33.3771 29.9886 33.3541 29.9858Z" stroke="#36BDB2" stroke-width="0.5"/>
<path fill-rule="evenodd" clip-rule="evenodd" d="M33.9131 30.0722L38.6598 27.8036L38.9671 28.4465L34.2204 30.7151L33.9131 30.0722Z" fill="#2FBCB2"/>
<path fill-rule="evenodd" clip-rule="evenodd" d="M33.9131 30.0722L38.6598 27.8036L38.9671 28.4465L34.2204 30.7151L33.9131 30.0722Z" stroke="#36BDB2" stroke-width="0.5"/>
<path fill-rule="evenodd" clip-rule="evenodd" d="M27.2556 29.0693L27.4927 28.3979L29.0832 28.9598L31.0673 29.6607L32.4774 30.1587C32.4675 30.1628 32.4572 30.1677 32.4476 30.1723C32.198 30.2916 32.0033 30.4788 31.8737 30.7006L30.8301 30.332L27.2556 29.0693Z" fill="#2FBCB2"/>
<path fill-rule="evenodd" clip-rule="evenodd" d="M27.2556 29.0693L27.4927 28.3979L29.0832 28.9598L31.0673 29.6607L32.4774 30.1587C32.4675 30.1628 32.4572 30.1677 32.4476 30.1723C32.198 30.2916 32.0033 30.4788 31.8737 30.7006L30.8301 30.332L27.2556 29.0693Z" stroke="#36BDB2" stroke-width="0.5"/>
<path fill-rule="evenodd" clip-rule="evenodd" d="M36.7242 29.1236C36.399 28.4432 36.687 27.6279 37.3675 27.3026C38.0479 26.9774 38.8633 27.2654 39.1884 27.9459C39.5137 28.6264 39.2257 29.4416 38.5453 29.7669C37.8647 30.0922 37.0495 29.8042 36.7242 29.1236Z" fill="#2FBCB2"/>
<path fill-rule="evenodd" clip-rule="evenodd" d="M36.7242 29.1236C36.399 28.4432 36.687 27.6279 37.3675 27.3026C38.0479 26.9774 38.8633 27.2654 39.1884 27.9459C39.5137 28.6264 39.2257 29.4416 38.5453 29.7669C37.8647 30.0922 37.0495 29.8042 36.7242 29.1236Z" stroke="#36BDB2" stroke-width="0.5"/>
<path fill-rule="evenodd" clip-rule="evenodd" d="M26.2663 29.4553C25.9129 28.7158 26.2258 27.8295 26.9655 27.476C27.7052 27.1225 28.5913 27.4356 28.9448 28.1752C29.2983 28.9148 28.9853 29.8011 28.2457 30.1545C27.506 30.5081 26.6199 30.195 26.2663 29.4553Z" fill="#2FBCB2"/>
<path fill-rule="evenodd" clip-rule="evenodd" d="M26.2663 29.4553C25.9129 28.7158 26.2258 27.8295 26.9655 27.476C27.7052 27.1225 28.5913 27.4356 28.9448 28.1752C29.2983 28.9148 28.9853 29.8011 28.2457 30.1545C27.506 30.5081 26.6199 30.195 26.2663 29.4553Z" stroke="#36BDB2" stroke-width="0.5"/>
<path fill-rule="evenodd" clip-rule="evenodd" d="M27.7932 33.34C27.9492 32.6021 28.6738 32.1303 29.4116 32.2863C30.1496 32.4423 30.6213 33.1668 30.4653 33.9047C30.3093 34.6427 29.5848 35.1144 28.8469 34.9584C28.1089 34.8025 27.6372 34.0778 27.7932 33.34Z" fill="#2FBCB2"/>
<path fill-rule="evenodd" clip-rule="evenodd" d="M27.7932 33.34C27.9492 32.6021 28.6738 32.1303 29.4116 32.2863C30.1496 32.4423 30.6213 33.1668 30.4653 33.9047C30.3093 34.6427 29.5848 35.1144 28.8469 34.9584C28.1089 34.8025 27.6372 34.0778 27.7932 33.34Z" stroke="#36BDB2" stroke-width="0.5"/>
<path fill-rule="evenodd" clip-rule="evenodd" d="M34.9957 35.5218C34.8324 34.7855 35.2971 34.0563 36.0333 33.893C36.7697 33.7298 37.4989 34.1944 37.6622 34.9307C37.8255 35.667 37.3608 36.3963 36.6244 36.5596C35.8882 36.7227 35.1589 36.2582 34.9957 35.5218Z" fill="#2FBCB2"/>
<path fill-rule="evenodd" clip-rule="evenodd" d="M34.9957 35.5218C34.8324 34.7855 35.2971 34.0563 36.0333 33.893C36.7697 33.7298 37.4989 34.1944 37.6622 34.9307C37.8255 35.667 37.3608 36.3963 36.6244 36.5596C35.8882 36.7227 35.1589 36.2582 34.9957 35.5218Z" stroke="#36BDB2" stroke-width="0.5"/>
<path fill-rule="evenodd" clip-rule="evenodd" d="M26.6022 30.6186C26.7834 30.7143 26.9775 30.7829 27.1783 30.8218C27.6031 30.9053 28.0574 30.8574 28.4776 30.6566C28.6095 30.5936 28.7321 30.5181 28.8437 30.4332C29.0093 30.3072 29.1519 30.1594 29.27 29.9958C29.6454 29.4756 29.7697 28.7961 29.5724 28.1587C29.5427 28.0623 29.5056 27.9672 29.4608 27.8734C29.4161 27.7798 29.3653 27.6912 29.3089 27.6075C29.1129 27.3153 28.8512 27.0854 28.5534 26.9288C28.3727 26.8329 28.1786 26.7643 27.9778 26.7254C27.5529 26.6413 27.0983 26.6892 26.6777 26.8903C26.2571 27.0914 25.9343 27.4149 25.7325 27.7979C25.6374 27.9789 25.5687 28.173 25.5292 28.3736C25.4456 28.7984 25.4935 29.2527 25.6946 29.6735C25.8956 30.0942 26.2192 30.4169 26.6022 30.6186Z" fill="#2FBCB2"/>
<path fill-rule="evenodd" clip-rule="evenodd" d="M26.6022 30.6186C26.7834 30.7143 26.9775 30.7829 27.1783 30.8218C27.6031 30.9053 28.0574 30.8574 28.4776 30.6566C28.6095 30.5936 28.7321 30.5181 28.8437 30.4332C29.0093 30.3072 29.1519 30.1594 29.27 29.9958C29.6454 29.4756 29.7697 28.7961 29.5724 28.1587C29.5427 28.0623 29.5056 27.9672 29.4608 27.8734C29.4161 27.7798 29.3653 27.6912 29.3089 27.6075C29.1129 27.3153 28.8512 27.0854 28.5534 26.9288C28.3727 26.8329 28.1786 26.7643 27.9778 26.7254C27.5529 26.6413 27.0983 26.6892 26.6777 26.8903C26.2571 27.0914 25.9343 27.4149 25.7325 27.7979C25.6374 27.9789 25.5687 28.173 25.5292 28.3736C25.4456 28.7984 25.4935 29.2527 25.6946 29.6735C25.8956 30.0942 26.2192 30.4169 26.6022 30.6186Z" stroke="#36BDB2" stroke-width="0.5"/>
<path fill-rule="evenodd" clip-rule="evenodd" d="M27.8239 36.0264C28.5782 36.0255 29.1903 36.6361 29.1911 37.3903C29.1921 38.1445 28.5814 38.7567 27.8272 38.7575C27.073 38.7584 26.4609 38.1478 26.4599 37.3936C26.4591 36.6394 27.0697 36.0272 27.8239 36.0264Z" fill="#2FBCB2"/>
<path fill-rule="evenodd" clip-rule="evenodd" d="M27.8239 36.0264C28.5782 36.0255 29.1903 36.6361 29.1911 37.3903C29.1921 38.1445 28.5814 38.7567 27.8272 38.7575C27.073 38.7584 26.4609 38.1478 26.4599 37.3936C26.4591 36.6394 27.0697 36.0272 27.8239 36.0264Z" stroke="#36BDB2" stroke-width="0.5"/>
<path fill-rule="evenodd" clip-rule="evenodd" d="M31.7772 21.5459C31.4954 22.2454 30.6998 22.584 30.0003 22.3023C29.3007 22.0205 28.9621 21.2249 29.2438 20.5254C29.5257 19.8258 30.3212 19.4871 31.0208 19.769C31.7204 20.0508 32.059 20.8463 31.7772 21.5459Z" fill="#2FBCB2"/>
<path fill-rule="evenodd" clip-rule="evenodd" d="M31.7772 21.5459C31.4954 22.2454 30.6998 22.584 30.0003 22.3023C29.3007 22.0205 28.9621 21.2249 29.2438 20.5254C29.5257 19.8258 30.3212 19.4871 31.0208 19.769C31.7204 20.0508 32.059 20.8463 31.7772 21.5459Z" stroke="#36BDB2" stroke-width="0.5"/>
<path fill-rule="evenodd" clip-rule="evenodd" d="M36.5491 25.5477C36.2673 26.2472 35.4717 26.5859 34.7722 26.3041C34.0726 26.0223 33.7339 25.2267 34.0157 24.5272C34.2976 23.8276 35.0932 23.4889 35.7927 23.7708C36.4923 24.0525 36.8309 24.8481 36.5491 25.5477Z" fill="#2FBCB2"/>
<path fill-rule="evenodd" clip-rule="evenodd" d="M36.5491 25.5477C36.2673 26.2472 35.4717 26.5859 34.7722 26.3041C34.0726 26.0223 33.7339 25.2267 34.0157 24.5272C34.2976 23.8276 35.0932 23.4889 35.7927 23.7708C36.4923 24.0525 36.8309 24.8481 36.5491 25.5477Z" stroke="#36BDB2" stroke-width="0.5"/>
<path fill-rule="evenodd" clip-rule="evenodd" d="M39.5853 20.9198C39.3035 21.6193 38.5079 21.9579 37.8084 21.6762C37.1088 21.3944 36.7701 20.5988 37.0519 19.8993C37.3338 19.1997 38.1293 18.861 38.8289 19.1429C39.5285 19.4246 39.8671 20.2202 39.5853 20.9198Z" fill="#2FBCB2"/>
<path fill-rule="evenodd" clip-rule="evenodd" d="M39.5853 20.9198C39.3035 21.6193 38.5079 21.9579 37.8084 21.6762C37.1088 21.3944 36.7701 20.5988 37.0519 19.8993C37.3338 19.1997 38.1293 18.861 38.8289 19.1429C39.5285 19.4246 39.8671 20.2202 39.5853 20.9198Z" stroke="#36BDB2" stroke-width="0.5"/>
</g>
<defs>
<filter id="filter0_dd" x="0" y="0" width="56" height="56" filterUnits="userSpaceOnUse" color-interpolation-filters="sRGB">
<feFlood flood-opacity="0" result="BackgroundImageFix"/>
<feColorMatrix in="SourceAlpha" type="matrix" values="0 0 0 0 0 0 0 0 0 0 0 0 0 0 0 0 0 0 127 0"/>
<feOffset/>
<feGaussianBlur stdDeviation="4"/>
<feColorMatrix type="matrix" values="0 0 0 0 0.03 0 0 0 0 0.17 0 0 0 0 0.160071 0 0 0 0.06 0"/>
<feBlend mode="normal" in2="BackgroundImageFix" result="effect1_dropShadow"/>
<feColorMatrix in="SourceAlpha" type="matrix" values="0 0 0 0 0 0 0 0 0 0 0 0 0 0 0 0 0 0 127 0"/>
<feOffset dy="1"/>
<feGaussianBlur stdDeviation="0.5"/>
<feColorMatrix type="matrix" values="0 0 0 0 0.03 0 0 0 0 0.17 0 0 0 0 0.160071 0 0 0 0.08 0"/>
<feBlend mode="normal" in2="effect1_dropShadow" result="effect2_dropShadow"/>
<feBlend mode="normal" in="SourceGraphic" in2="effect2_dropShadow" result="shape"/>
</filter>
</defs>
</svg>
