<svg width="16" height="16" viewBox="0 0 16 16" fill="none" xmlns="http://www.w3.org/2000/svg">
<path d="M9.81333 5.86L6.95333 8.72667L5.85333 7.62667C5.79357 7.55688 5.72002 7.5002 5.63731 7.46018C5.5546 7.42017 5.46451 7.39768 5.3727 7.39413C5.28089 7.39059 5.18933 7.40606 5.10378 7.43958C5.01823 7.47309 4.94053 7.52393 4.87556 7.5889C4.81059 7.65387 4.75976 7.73157 4.72624 7.81712C4.69272 7.90267 4.67725 7.99422 4.6808 8.08604C4.68435 8.17785 4.70683 8.26794 4.74685 8.35065C4.78686 8.43336 4.84354 8.5069 4.91333 8.56667L6.48 10.14C6.54229 10.2018 6.61617 10.2507 6.69739 10.2838C6.77862 10.317 6.86559 10.3338 6.95333 10.3333C7.12822 10.3326 7.29582 10.2632 7.42 10.14L10.7533 6.80667C10.8158 6.74469 10.8654 6.67096 10.8993 6.58972C10.9331 6.50848 10.9505 6.42134 10.9505 6.33333C10.9505 6.24533 10.9331 6.15819 10.8993 6.07695C10.8654 5.99571 10.8158 5.92198 10.7533 5.86C10.6284 5.73583 10.4595 5.66614 10.2833 5.66614C10.1072 5.66614 9.93824 5.73583 9.81333 5.86ZM8 1.33333C6.68146 1.33333 5.39252 1.72433 4.2962 2.45687C3.19987 3.18941 2.34539 4.2306 1.8408 5.44878C1.33622 6.66695 1.20419 8.0074 1.46143 9.3006C1.71866 10.5938 2.3536 11.7817 3.28595 12.714C4.2183 13.6464 5.40619 14.2813 6.6994 14.5386C7.9926 14.7958 9.33305 14.6638 10.5512 14.1592C11.7694 13.6546 12.8106 12.8001 13.5431 11.7038C14.2757 10.6075 14.6667 9.31854 14.6667 8C14.6667 7.12452 14.4942 6.25761 14.1592 5.44878C13.8242 4.63994 13.3331 3.90501 12.714 3.28595C12.095 2.6669 11.3601 2.17583 10.5512 1.8408C9.74238 1.50577 8.87548 1.33333 8 1.33333ZM8 13.3333C6.94516 13.3333 5.91402 13.0205 5.03696 12.4345C4.15989 11.8485 3.47631 11.0155 3.07264 10.041C2.66897 9.06644 2.56336 7.99408 2.76914 6.95952C2.97493 5.92495 3.48288 4.97464 4.22876 4.22876C4.97464 3.48288 5.92495 2.97493 6.95952 2.76915C7.99408 2.56336 9.06644 2.66897 10.041 3.07264C11.0155 3.47631 11.8485 4.1599 12.4345 5.03696C13.0205 5.91402 13.3333 6.94517 13.3333 8C13.3333 9.41449 12.7714 10.771 11.7712 11.7712C10.771 12.7714 9.41449 13.3333 8 13.3333Z" fill="#23C8BC"/>
</svg>
